<?xml version="1.0" encoding="UTF-8"?>
<svg id="Layer_1" xmlns="http://www.w3.org/2000/svg" xmlns:xlink="http://www.w3.org/1999/xlink" version="1.1" viewBox="0 0 517.4 112.9">
  <defs>
    <style>
      .st0 {
        fill: none;
      }

      .st1, .st2 {
        fill: #fac234;
      }

      .st2, .st3 {
        opacity: .7;
      }

      .st4, .st5 {
        fill: #94a7e4;
      }

      .st6, .st7, .st3, .st8 {
        fill: #fff;
      }

      .st6, .st9 {
        opacity: .8;
      }

      .st7, .st5, .st10, .st11 {
        opacity: .8;
      }

      .st12 {
        fill: #ffb5b5;
      }

      .st13, .st9, .st10 {
        fill: #468157;
      }

      .st11 {
        fill: #f26d34;
      }

      .st14 {
        clip-path: url(#clippath);
      }
    </style>
    <clipPath id="clippath">
      <rect class="st0" x="99.9" y="90.2" width="306.7" height="22.7"/>
    </clipPath>
  </defs>
  <path class="st12" d="M475.5,19.7c2.4.3,4.8,1.2,6.8,2.5,1.2-.7,2.5-1.2,3.8-1.5-4.7-2.1-10.2-2-15.1-.8,1.5-.3,3-.4,4.5-.2ZM487.4,22.5c.6,0,1.1,0,1.7,0,0,0,0,0,0,0,0,0-.1-.1-.2-.2-.4,0-.8.1-1.2.2,0,0-.1,0-.2,0ZM463.1,22.9c.5,0,1.1-.2,1.6-.2.4-.3.8-.6,1.2-.9.8-.5,1.7-1,2.7-1.3-1.9.6-3.8,1.4-5.5,2.4ZM492.5,22.9c.8.2,1.6.4,2.4.6.3-.1.6-.2.9-.3-1.3-.5-2.7-.8-4.1-.9.2.2.3.4.5.6,0,0,.2,0,.3,0ZM474.3,23.7c.4.1.7.2,1.1.4,1.5-.4,3-.7,4.6-.8-3.3-1.7-7.4-2.1-10.9-.6,1.8.1,3.5.4,5.2,1ZM500.1,25.7s0,0,.1,0c-.3-.3-.7-.5-1-.8-.2-.1-.3-.2-.5-.3-.3,0-.6.1-.9.2.7.6,1.5.7,2.3.8ZM487.2,27.4s0,0,0,0c0,0-.1,0-.2-.1,0,0,0,.1.1.2ZM490.5,28h.2c0-.1-.1,0-.2,0,0,0,0,0,0,0ZM483.1,30.3c.7-.6,1.5-1.1,2.2-1.7-.2-.4-.4-.8-.7-1.2-.2-.3-.4-.5-.6-.8-.9,0-1.9.2-2.8.4-.3,0-.5.1-.8.2,1,.9,1.9,1.9,2.6,3.1ZM488.3,30.4c.1-.2.2-.3.4-.5,0-.1.2-.3.3-.4,0-.2-.2-.3-.3-.5-.2.1-.4.3-.6.4.1.3.2.7.3,1ZM462.1,32.5c2.7-3.2,6.1-5.6,9.9-7.3-2.1-.5-4.3-.6-6.5-.4-2.2,1.9-3.5,4.8-3.4,7.7ZM504.7,32.9c-.3-1-.8-1.9-1.4-2.7.6.9,1,1.8,1.4,2.7ZM505.9,27.7c2,.8,3.8,2.1,5.3,3.6.7.7,1.3,1.4,1.8,2.1-1-5.5-5.6-9.5-11.3-9.2,1.1.9,2.1,1.9,2.9,3,.4.1.8.3,1.2.4ZM484.9,33.7c.5-.5,1-1.1,1.5-1.6,0-.5,0-.9-.2-1.4-.7.5-1.3,1-1.9,1.5.2.5.4,1,.6,1.5ZM476.8,34.4c.6,0,1.2-.2,1.9-.2.9-.9,1.8-1.7,2.8-2.6-.8-1.2-1.7-2.3-2.8-3.2-1.1,1.8-1.8,3.9-1.8,6ZM482.9,34.5c-.1-.3-.2-.6-.3-.9h-.1c-.2.3-.5.5-.7.7.4,0,.8,0,1.2.2ZM491.8,31.3c.1.6.1,1.1.1,1.7,0,.7,0,1.5-.2,2.2.5-1.5.8-3.1.8-4.6,0,0-.1,0-.2,0-.2.1-.4.2-.6.3,0,.1,0,.2,0,.3ZM472.2,35.2c.2,0,.3.2.5.3.6-.2,1.3-.4,1.9-.6,0-2.2.5-4.3,1.4-6.3-3.2,1.2-6.2,3-8.8,5.2,1.7.2,3.4.6,4.9,1.4ZM457.5,35.8c.5-.3,1.1-.5,1.6-.7.4-.1.7-.3,1.1-.4-.6-3.3,0-6.8,2.1-9.5-1.2.2-2.4.5-3.5.9-2.7,2.6-3.5,6.5-1.3,9.7ZM489.1,36.6c.5-1.4.7-2.9.6-4.4-.7,1.2-1.1,2.6-1.3,4,.2.1.5.2.7.3ZM458.9,37.7v-.3s0,0-.1.1c0,0,0,0,.1.1ZM512.8,38c.1,0,.3.1.4.2v-.2c-1.3-3.1-3.5-5.9-6.5-7.6.3.6.5,1.2.8,1.8.5,1.4.8,2.9.9,4.4,1.5.3,3,.7,4.4,1.4ZM492.7,39.1c3.4-1.5,7.1-2.4,10.8-2.6-1-3.1-3.8-5.8-6.5-7.4-.8.2-1.6.4-2.4.6.2,3.2-.7,6.4-2.2,9.2,0,0,.2.2.3.2ZM485.8,40.3c.2,0,.5,0,.7,0,0-.3,0-.6-.1-.8,0-.1,0-.2,0-.3-.2.2-.3.4-.5.6,0,.2,0,.4,0,.6ZM464.5,40.3c1.6-1.5,3.5-2.7,5.5-3.7-1.5-.5-3.2-.7-4.8-.7-.6.7-1.2,1.4-1.7,2.2,0,0,0,.1-.1.2.1.3.3.6.4.9.2.4.4.8.6,1.2ZM499.1,40.4c1.4,0,2.8.3,4.1.8.5-.8,1-1.7.7-2.7-3.3.2-6.5.9-9.6,2.1,0,0,0,0,0,0,1.5-.3,3.1-.5,4.6-.4ZM472.7,41.6c.2-.3.3-.5.5-.8.3-.5.7-1,1.1-1.5-.5-.5-1.1-1-1.8-1.4-1.8.7-3.5,1.7-5,2.8h.2c1.7,0,3.4.3,4.9,1ZM479.1,41.6c.6-.2,1.2-.4,1.7-.6l.3-.2c.1-.6.3-1.1.4-1.7.3-.9.7-1.7,1.1-2.6-.6-.1-1.3-.2-1.9-.2-.4,0-.8,0-1.2,0-.5.5-1,1.1-1.5,1.6-.2.2-.4.5-.6.7.4,1.1.9,2.1,1.6,3ZM475.2,43.1c.5-.1,1.1-.1,1.6-.4-.3-.6-.6-1.2-1-1.8-.2.3-.4.5-.6.8-.2.3-.4.6-.6.9.2.1.4.3.6.4ZM470.8,43.2c-.8-.3-1.7-.4-2.6-.4h.5c.7.2,1.4.3,2.1.4ZM483.1,43.5c0-.3.1-.5.2-.7h-.2c0,.3,0,.5,0,.7ZM501.3,43.8s0,0,0,0c.2-.2.4-.5.6-.8-1.1-.4-2.3-.5-3.5-.5,1,.4,1.9.8,2.9,1.3ZM447.8,44.3c1.9-3.1,4.6-5.7,7.8-7.5-1.8-2.7-2.1-6.3-.5-9.2-6.4,2.8-12.7,10.1-7.3,16.7ZM503.9,45.4c0-.3,0-.7.1-1,0,0-.1-.1-.2-.2,0,0,0,0,0,0,0,0,0,.1-.1.2-.2.2-.3.4-.5.6.2.2.5.3.7.5ZM472.8,45.9c.1-.2.3-.4.4-.5,0,0-.1,0-.2,0,0,.2-.2.3-.2.5ZM470,46c.1,0,.3,0,.4,0,.1-.3.2-.5.3-.8-.7,0-1.3-.1-2-.3-.2,0-.3,0-.5,0,.3.2.5.5.8.7.1.1.3.2.4.4.2,0,.4,0,.6,0ZM477.9,46.2c0,0,0-.2,0-.3,0-.4-.2-.7-.3-1.1,0,0,0,0-.1,0-.1,0-.2.1-.3.2.3.4.5.8.8,1.2ZM475.5,46.4s0,0,0-.1c0,0,0,0-.1.1,0,0,.2,0,.2,0ZM479.8,45.1c.1.5.2,1,.3,1.5.4-.2.7-.4,1.1-.7,0,0,0,0,0,0,0,0,0-.1,0-.2,0,0-.2,0-.3,0-.4-.1-.7-.3-1.1-.5,0,0,0,0,0,.1ZM497.7,46.9s0,0,0,0c.7-.5,1.4-1,2-1.6,0,0,0,0,0,0,0,0,0,0,0,0-1-.5-2-.9-3-1.3.4.9.8,1.8,1,2.8ZM485.2,48.7c.1-1,.5-1.9,1-2.7.1-.3.3-.5.5-.7-.2.2-.4.4-.7.6-.7.6-1.4,1.3-2,1.9,0,.2.2.3.2.5h0c.3.2.6.3.9.5ZM474.3,49.2c.1,0,.3,0,.4-.1.4-.1.8-.3,1.1-.4-.7,0-1.5,0-2.2,0,0,0,0,.2-.1.2,0,0,.1,0,.2.1.2,0,.3.2.5.3ZM493.6,49.2c.4-.2.8-.4,1.2-.6.3-.2.6-.3.9-.5-.2-1.8-1-3.5-2.1-5,0,0,0,0,0,0-1.2.4-2.3.9-3.4,1.6.9,1.7,2,3.2,3.4,4.5ZM455.1,49.3c.1-.7.4-1.3.6-1.9,0-2.7.8-5.4,2.1-7.8-.2-.2-.3-.3-.5-.5-.2-.2-.3-.4-.5-.6-3.1,1.8-5.8,4.3-7.5,7.4,1.7,1.5,3.7,2.6,5.8,3.3ZM506.8,48c.4.4.7.9,1.1,1.3,0,0,.1.2.2.3,1.9-2.8,3.8-5.8,4.7-9.1-1.3-.9-2.8-1.3-4.3-1.7,0,3.2-1.2,6.1-1.7,9.2,0,0,0,0,0,0ZM461.4,50.2c1.8-1.3,3.8-2.2,6-2.9,0,0,0,0,0,0,0,0,0,0,0,0-1.2-1-2.2-2.2-3.2-3.4,0,0,0,0,0,0-1.4,1.6-2.6,3.5-3.3,5.6,0,.2.1.3.2.5,0,.1.2.3.2.4ZM458.4,50.2c0-.3.1-.6.2-.8-.2-.6-.4-1.2-.6-1.8-.5.7,0,1.7,0,2.6.1,0,.3,0,.4,0ZM468.9,50.5c.1,0,.3,0,.4,0,0-.1,0-.3,0-.4,0-.3.1-.6.2-.9,0,0,0,0,0,0-.2,0-.4,0-.6.1,0,.4,0,.9,0,1.3ZM488.8,50.8c.9-.2,1.7-.4,2.6-.7-.5-.5-.9-1-1.3-1.6-.6-.7-1-1.5-1.5-2.3-.8,1-1.3,2.3-1.3,3.5.5.3,1,.6,1.5,1ZM464.4,50.8c.6,0,1.2,0,1.7,0,.2,0,.4,0,.6,0,0-.1,0-.3,0-.4,0-.2,0-.3,0-.5-.6.2-1.3.5-1.9.8-.2,0-.3.2-.4.2ZM495.8,50.8v-.2s-.1,0-.2.1c0,0,.1,0,.2.1ZM483.6,51.3c-.3-.4-.6-.8-.8-1.3,0,0-.2,0-.3,0-.3.4-.6.8-.9,1.3.2,0,.4,0,.6,0,.4,0,.9,0,1.3,0ZM509.5,51.4c3.3-1.5,6.9-5.3,5-9.1-1.1,3.3-3,6.2-5,9.1ZM499.4,52.4c1.5-1,3.8-2.8,4.1-4.6-.4-.3-.8-.6-1.3-.9-.2-.1-.3-.2-.5-.3-.9.8-1.8,1.6-2.8,2.3-.3.2-.6.4-.9.6,0,.3,0,.6,0,1,0,.5,0,1-.2,1.5.2,0,.4.2.6.2.3.1.7.2,1,.3ZM505.9,51.1c-.2.5-.4,1.1-.7,1.6.3,0,.6,0,.9-.2,0,0,0,0,0,0,.2-.3.4-.6.6-.9-.2-.4-.4-.8-.7-1.1,0,.2-.1.4-.2.6ZM494.2,54.1c.2,0,.4,0,.6,0,.2-.3.3-.7.4-1.1-.1,0-.3-.1-.4-.2-.6-.3-1.1-.7-1.6-1.1-.8.3-1.5.5-2.3.8.2.2.4.4.7.6.3.3.6.7.9,1,.6,0,1.1,0,1.7,0ZM473.9,55.3c1.3-.8,2.5-1.7,3.6-2.7-1.2-.3-2.3-.7-3.4-1.2-.3,0-.6.2-.9.3-.3,1.3,0,2.5.7,3.6ZM472,56.3s0,0,0,0c0,0,0,0,0,0,0,0,0,0,0,0ZM496,56.3c.3-.2.6-.3.9-.5-.2,0-.4.1-.7.2,0,.1-.1.2-.2.4ZM461,56.3c-.1-.3-.3-.5-.4-.8-.1-.3-.3-.5-.4-.8,0,.4,0,.9.2,1.3.2.1.4.2.6.3,0,0,0,0,0,0ZM468.5,57.3h.5c0-.2.2-.3.3-.5-.8-1.3-1.4-2.6-1.9-4-.8,0-1.7.1-2.5.2-.5,0-1,0-1.5,0,1.5,1.7,3.3,3.2,5.2,4.3ZM464.9,57.4c-.6-.4-1.1-.9-1.6-1.4.3.4.5.9.8,1.3.3,0,.6,0,.8.1ZM475.8,57.9c.2-.4.5-.8.7-1.2.1-.2.2-.4.3-.7-.5.4-1.1.8-1.7,1.1.1.2.3.4.4.5,0,0,.2.2.2.3ZM492,57.9c.1-.1.3-.3.4-.4,0,0,0,0,0,0-.3-.5-.7-.9-1-1.3-.5,0-1.1-.2-1.6-.4.7.8,1.4,1.6,2.2,2.2ZM474.3,59.8s0,0,.1-.1c-.3-.3-.6-.7-.9-1-.1-.2-.3-.3-.4-.5-.1,0-.2,0-.3.1.3.5.7,1,1,1.4.2,0,.3,0,.5.1ZM496.2,59.9c1.6-1.1,3.4-2.3,4.3-4-.4.3-.8.6-1.1.8-1.2.8-2.4,1.5-3.6,2.2.2.3.3.7.5,1ZM466.1,60c.2-.1.3-.3.5-.4-.3,0-.6,0-.9,0h.1c0,.2.2.3.2.4ZM482.6,60.5c1.2,0,2.4-.3,3.6-.5,1.3-.3,2.6-.6,3.9-1-1.7-1.5-3.1-3.3-4-5.3-.1-.1-.3-.2-.4-.3-1.7.1-3.5,0-5.2-.2-.3.6-.5,1.2-.7,1.8,0,1.9-.9,3.6-.7,5.5,1.2.3,2.4,0,3.6,0ZM503.2,60.8c2.7-.8,4.8-3.5,4.4-6.4,0,0,0,0,0,0-1.4,2.1-2.9,4.2-4.3,6.3ZM500.3,61.2c1.5-2.1,2.9-4.2,4.3-6.3-.2,0-.4,0-.5,0-.6,1-1.3,2-2.1,2.9-.7,1.2-1.4,2.3-2.2,3.3h0c.2,0,.4,0,.6,0ZM464.1,61.3c0,0,.2,0,.2-.1,0,0-.1-.1-.2-.2-.5-.6-1-1.2-1.4-1.8-.2,0-.5-.1-.7-.2.3.4.6.7.9,1.1.4.4.7.8,1.1,1.2ZM489.5,62.5c1.3-.2,2.6-.6,3.9-1.1-.4-.2-.8-.5-1.2-.7-.8.7-1.8,1.3-2.7,1.8ZM456.2,62.8c-.5-2.3-.2-4.8.7-6.9-1.1-1.2-1.8-2.8-1.9-4.4-2.4-.8-4.6-2-6.6-3.6-2.7,6.5.7,13.8,7.9,14.9ZM469.2,62.9c1.1-.3,2.2-.8,3.2-1.4,0,0,0,0,0,0-1.1-.4-2.1-.8-3.2-1.3-.5.5-1,1-1.6,1.4.1.1.3.3.4.4.4.3.8.6,1.1.9ZM458.5,63c1,0,2-.2,2.9-.5-1.3-1.3-2.3-3-2.8-4.8-.5,1.7-.5,3.5,0,5.3ZM473,65.3c.2-.2.4-.4.5-.6.3-.3.6-.7.8-1-.2-.2-.4-.4-.6-.6-.7.5-1.5,1-2.4,1.3.5.3,1.1.6,1.6.9ZM478.3,67.2c-.8-.6-1.6-1.3-2.3-2,0,0,0,.1-.1.2-.2.3-.5.6-.7.8.2,0,.5.2.7.3.8.3,1.6.5,2.4.7ZM482.9,67.6c4.4,0,8.7-1.7,12.1-4.6-3.5,1.6-7.4,2.3-11.2,1.6-1.3.2-2.7.3-4,.2,0,.1,0,.3.1.4,0,.3.2.5.3.8.3.2.5.4.8.6.6.4,1.3.8,1.9,1.2ZM466.1,68.7c1.1,0,2.3-.4,3.3-.8-2.2-1-3.9-2.8-6-3.8-.7.3-1.5.5-2.3.7-.6.1-1.2.3-1.8.3,1.3,2.4,4.1,3.9,6.8,3.6ZM497.5,64.6c.2,1.1.2,2.3,0,3.4,0,.7-.3,1.5-.5,2.1,10.4-1.5,17.4-10.4,18.2-20.5-1.1,1.4-2.5,2.5-4.1,3.4-.5.3-.9.5-1.4.7,1.1,6.7-5.6,10.7-11.7,9.4-.2.2-.4.4-.7.7,0,.3,0,.6.1.9ZM494.6,70.4c.8-1.5,1-3.3.8-5-2.5,1.9-5.5,3.3-8.6,3.9,2.5.8,5.2,1.2,7.8,1.1ZM490,73.6c1,0,2-.4,2.8-1-3.4-.1-6.8-1-9.9-2.5,0,0,0,.2,0,.3,1.8,2,4.4,3.4,7.1,3.2ZM488.8,75.7c-3.1-.3-5.9-2.1-7.9-4.4-3.1-.2-6.2-1.2-9.1-2.3-5.3,3.4-12.4,2.1-14.9-3.9-9.4-.7-14.2-10.6-10.2-18.7-4.2-4.2-4-10.6-.2-15,2.1-2.6,5-4.4,7.9-5.8,1.2-.7,2.8-.8,3.8-1.8,8.2-6.6,21.9-9.6,31.1-3.6,1.2,0,2.4,0,3.5.1,2.2.3,4.2,1.1,6.1,2.1,7.2-1.5,14.2,2.5,15.9,9.8.5,1.8.6,3.7.4,5.5.3.7.5,1.3.7,2,4.7,14.4-4.5,31.7-20.3,32.8-1.5,2.3-4.3,3.5-7,3.2"/>
  <g>
    <path class="st7" d="M358.5,76.4l-16.7-38-9.2,30-18.3-5.6L333.3,1l17.3,5.3,16.6,38.5,9.4-30.5,18.3,5.6-19,61.8-17.4-5.3Z"/>
    <path class="st8" d="M86.9,6c4-1.1,7.8-1.1,11.5,0,3.6,1,6.8,2.9,9.4,5.6s4.5,6.1,5.6,10.1l.3,1.2c1.1,4,1.2,7.9.3,11.6-.9,3.7-2.6,6.9-5.3,9.6-2.6,2.7-5.9,4.6-10,5.6l-15.5,4.2,5.6,20.9-20.8,5.6L50.6,15.8l36.3-9.8ZM79.1,38.8l8.5-2.3c2.2-.6,3.7-1.6,4.5-3,.8-1.4.9-3.1.4-5l-.2-.8c-.5-2-1.5-3.4-2.9-4.2-1.4-.8-3.2-.9-5.4-.3l-8.5,2.3,3.6,13.3Z"/>
    <path class="st6" d="M13.8,4.1l53.8,12-3.3,14.9-33.8-7.5-1.9,8.6,28.9,6.4-3.2,14.3-28.9-6.4-2.1,9.5,34.4,7.7-3.3,14.9L0,66.2,13.8,4.1Z"/>
    <path class="st8" d="M171.7,1.5c3.9-1.4,7.6-1.8,11.3-1.1,3.7.7,6.9,2.2,9.7,4.7,2.8,2.5,5,5.6,6.4,9.5l.4,1.2c1.4,3.9,1.9,7.7,1.4,11.4-.5,3.7-2,7.1-4.3,9.9-2.3,2.9-5.5,5.1-9.3,6.5l-14.9,5.5,7.4,20-19.9,7.4-23-62L171.7,1.5ZM167,34.4l8.2-3c2.1-.8,3.5-1.9,4.1-3.4.7-1.5.7-3.2,0-5l-.3-.7c-.7-1.9-1.8-3.2-3.2-3.9-1.4-.7-3.2-.6-5.3.2l-8.2,3,4.7,12.8Z"/>
    <path class="st7" d="M112.1,74.4l5.5-68,21.8,1.8-5.5,68-21.8-1.8Z"/>
    <path class="st7" d="M237.8,75.1l5.6-24.1-22.4-5.2-5.6,24.1-20.4-4.7L209.6,1.7l20.4,4.7-5.4,23.2,22.4,5.2,5.4-23.2,20.4,4.7-14.7,63.5-20.4-4.7Z"/>
    <path class="st7" d="M308,75.2l-1.4-9.5-22.6-3.3-4,8.7-21.1-3.1,32.9-60.9,24,3.5,14.1,67.8-21.9-3.2ZM290.5,48.7l13.9,2-3.4-23.9h-.4c0,0-10.2,21.9-10.2,21.9Z"/>
    <path class="st3" d="M431.6,73.7l-22.1,2.9-3.5-26.7-32.8-38.6,25.4-3.3,16.2,21.2h.4c0,0,10.2-24.7,10.2-24.7l24.1-3.2-21.4,45.7,3.5,26.7Z"/>
  </g>
  <g class="st14">
    <path class="st13" d="M107.3,107.6h-.6c-.2,0-.4,0-.5,0-.3,0-.6-.2-.8-.4-.2-.2-.4-.4-.5-.7-.2-.3-.3-.7-.3-1.1,0-.4,0-.8,0-1.2s0-.4,0-.6c0-.2,0-.4,0-.6,0-.2,0-.4,0-.6v-.6c0-.2,0-.4,0-.6,0-.2,0-.4,0-.6v-.5c0-.2,0-.3-.1-.5,0-.1-.2-.2-.3-.2-.1,0-.3,0-.4,0-.1,0-.3,0-.4,0-.1,0-.2-.1-.3-.3,0-.2,0-.4,0-.5,0-.1.2-.2.4-.2.2,0,.3,0,.5,0,.2,0,.3,0,.5,0,.2,0,.3-.2.3-.4,0-.2,0-.4,0-.5,0-.2,0-.4,0-.6v-.6c0-.2,0-.3,0-.4,0-.2.1-.3.3-.4.1,0,.3,0,.4,0,.2,0,.3,0,.4.2.1.1.2.3.2.5v.6c0,.2,0,.4,0,.6,0,.2,0,.4,0,.6,0,.1,0,.3.1.4,0,0,.2.1.4.2.2,0,.4,0,.6,0,.2,0,.4,0,.6,0,.1,0,.3,0,.4,0,.2,0,.3,0,.4.3,0,.2,0,.3,0,.4,0,.1-.2.2-.3.3-.2,0-.4,0-.6.1-.2,0-.4,0-.6,0h-.5c-.2,0-.3,0-.4.2,0,0,0,.2,0,.3,0,0,0,.2,0,.2v.4c0,0,0,.2,0,.3,0,.4,0,.9,0,1.3,0,.4,0,.8,0,1.3,0,.2,0,.4,0,.6,0,.2,0,.4,0,.6s0,.4,0,.6c0,.2,0,.4.2.5,0,.2.1.3.2.5,0,.2.2.3.3.4.1,0,.3.1.4.1.2,0,.3,0,.4,0,.3,0,.4-.2.5-.4.1-.2.2-.4.2-.7,0-.3,0-.5.1-.7,0-.2,0-.3,0-.5s0-.3.2-.5.2-.2.4-.2c.2,0,.3,0,.5,0,.2,0,.2.2.2.4v.5c0,.4,0,.7-.2,1.1-.1.3-.3.6-.5.9-.2.3-.5.6-.8.7-.3.2-.6.2-.9.3Z"/>
    <path class="st13" d="M115.5,97.3c-.3,0-.6-.1-.7-.4-.2-.2-.2-.5-.2-.8,0-.3.2-.5.4-.7.2-.2.5-.2.8-.2.6,0,.9.4.9,1,0,.3-.1.6-.3.8-.2.2-.5.3-.8.3ZM115.2,107.6c-.1,0-.2,0-.4,0-.1,0-.3,0-.4,0-.1,0-.3,0-.4,0-.1,0-.3,0-.4,0,0,0-.2,0-.3-.1,0,0-.2-.1-.2-.3,0-.1,0-.2,0-.3,0,0,.1-.2.2-.2.2,0,.3-.1.5,0,.2,0,.4,0,.6,0,.2,0,.3,0,.4-.3,0-.1.1-.2.1-.4,0-.1,0-.3,0-.4v-.5c0-.2,0-.3,0-.5,0-.3,0-.7,0-1v-1h0v-.9c0-.3,0-.6,0-.9,0-.2,0-.4,0-.7,0-.3-.1-.4-.3-.6-.1,0-.3-.1-.4-.1-.1,0-.3,0-.4,0-.1,0-.3,0-.4,0-.2,0-.3-.2-.4-.4,0-.2,0-.4.1-.5,0,0,.2-.1.3-.1,0,0,.2,0,.3,0,.2,0,.3,0,.5,0h.5c.1,0,.3,0,.4,0s.3,0,.4,0c0,0,.2,0,.3,0,0,0,.2,0,.3.1.1.1.2.3.2.5,0,.2,0,.4,0,.5,0,.3,0,.5,0,.8,0,.3,0,.5,0,.8,0,.3,0,.6,0,.8,0,.3,0,.6,0,.9,0,.3,0,.6,0,.9v.8c0,.3,0,.5,0,.8,0,.3,0,.5,0,.8,0,0,0,.2.1.3,0,0,.2.2.3.2.1,0,.3,0,.4,0,.2,0,.3,0,.4,0,0,0,.2,0,.3,0,0,0,.2,0,.3.1.2.2.2.4,0,.6-.1.2-.3.3-.6.3s-.5,0-.8,0c-.3,0-.6,0-.9,0-.3,0-.6,0-.9,0Z"/>
    <path class="st13" d="M126,107.7c-.3,0-.7,0-1,0-.3,0-.7,0-1-.2-.5-.2-1-.6-1.3-1.1-.3-.4-.4-.9-.5-1.4,0-.5-.1-1-.1-1.5,0-.5,0-1,0-1.5,0-.7.2-1.3.5-1.9.3-.6.8-1,1.3-1.2.8-.4,1.5-.5,2.1-.5.1,0,.3,0,.4,0,.1,0,.3,0,.4,0,.1,0,.2,0,.3.1.2,0,.3,0,.5.1.1,0,.3.1.4.2.6.3,1,.8,1.2,1.5.3.9.5,1.6.4,2.2,0,.4-.2.6-.5.7s-.6.1-.9.1h-.2c0,0-.1,0-.2,0h-.4c-.1,0-.3,0-.4,0s-.2,0-.3,0h-.3c0,0-.2,0-.3,0h-.6c0,0-.2,0-.3,0h-.9c0,0-.2,0-.3,0h-.3c0,0-.1,0-.1,0-.1,0-.2.2-.2.5h0c0,.3,0,.5,0,.6,0,.2,0,.3.1.5.3.8.7,1.3,1.3,1.5.4.1.7.2,1.1.2.4,0,.8-.1,1.1-.3s.3-.2.5-.3c.2-.1.3-.2.4-.3,0,0,.1-.2.2-.3,0,0,.1-.2.2-.4,0,0,0-.1,0-.1,0,0,0-.1,0-.2.1-.3.3-.5.5-.5.3,0,.4,0,.5.4,0,.3,0,.7,0,1,0,.3-.3.6-.5.8-.6.5-1.2.9-1.8,1-.3,0-.7,0-1,0ZM127.3,102.3h.5c.2,0,.4-.1.4-.3,0-.2,0-.3,0-.5s-.1-.4-.2-.6c-.2-.4-.5-.7-.8-.9-.7-.4-1.6-.5-2.6-.2-.4.1-.7.3-.9.6l-.3.6c0,.2-.2.4-.2.6,0,.5.2.7.9.7h3.1Z"/>
    <path class="st13" d="M147.6,107.7c-.2,0-.5,0-.7,0-.3,0-.5,0-.8,0-.2,0-.4-.1-.6-.2-.2,0-.4-.2-.6-.3-.3-.2-.6-.5-.8-.8-.2-.3-.3-.7-.4-1.1,0-.3,0-.5-.1-.8,0-.3,0-.5,0-.8,0-.1,0-.2,0-.4,0-.1,0-.2,0-.3,0-.1,0-.3,0-.4v-2.3c0-.1,0-.2,0-.3,0,0,0-.2-.1-.3,0,0-.1-.2-.2-.3-.2-.1-.3-.2-.5-.3-.1,0-.2,0-.3,0-.1,0-.2,0-.3,0-.3,0-.4-.2-.4-.4,0-.2.1-.4.3-.5.1,0,.2-.1.3-.1h.3c.1,0,.3,0,.4,0,.1,0,.3,0,.4,0,.2,0,.4,0,.6,0,.3,0,.4,0,.6.3,0,0,0,.2,0,.3v2.7c0,.3,0,.5,0,.8,0,.3,0,.5,0,.8s0,.5,0,.8c0,.3,0,.5,0,.8,0,.4.2.8.4,1.1.2.3.5.5.9.7.4.1.8.1,1.3,0,.4,0,.8-.2,1.1-.5.4-.3.7-.7.8-1.1.1-.4.2-.9.2-1.4,0-.3,0-.5,0-.8s0-.5,0-.8h0v-.8c0-.3,0-.6,0-.8,0-.2,0-.4-.1-.6,0-.2-.3-.3-.5-.4,0,0-.2,0-.3,0,0,0-.2,0-.3,0-.1,0-.2,0-.3-.1,0,0-.2-.1-.2-.2-.1-.2-.1-.4,0-.5.2-.1.4-.2.5-.2.1,0,.3,0,.4,0,.1,0,.3,0,.4,0h.4c.1,0,.3,0,.4,0,.2,0,.3,0,.5,0,.2,0,.3,0,.4.3,0,.2.1.4,0,.6,0,.2,0,.4,0,.6,0,.3,0,.5,0,.8,0,.3,0,.6,0,.8,0,.3,0,.5,0,.8,0,.2,0,.5,0,.7,0,.3,0,.5,0,.8,0,.3,0,.5,0,.8,0,.2,0,.3,0,.6,0,.2,0,.4,0,.6,0,.2,0,.4.2.5.1.1.3.2.5.2s.2,0,.3,0c.1,0,.2,0,.3,0,.2,0,.4.2.5.4,0,.2,0,.4,0,.5,0,.2-.2.3-.4.3-.3,0-.5,0-.8,0h-.8c-.2,0-.4,0-.6,0-.2,0-.3-.1-.5-.3,0,0-.1-.2-.2-.2,0,0-.1-.1-.2-.1-.1,0-.2,0-.3.1,0,0-.2.1-.3.2-.2.1-.4.2-.6.3-.2,0-.5.1-.7.2Z"/>
    <path class="st13" d="M158,110.6c-.2,0-.4,0-.6,0-.2,0-.4,0-.5-.2,0-.1-.2-.2-.2-.4,0-.2,0-.3,0-.4.1-.2.3-.3.4-.3s.4,0,.6,0c.1,0,.2,0,.4,0,.1,0,.2,0,.3-.1.1-.1.2-.3.2-.4,0-.2,0-.3,0-.5v-1.3c0-.2,0-.4,0-.6,0-.2,0-.4,0-.6,0-.2,0-.5,0-.7,0-.2,0-.5,0-.7v-2.8c0-.2,0-.4,0-.6,0-.2,0-.4,0-.6,0-.3-.2-.6-.5-.9-.2-.2-.3-.2-.5-.2-.2,0-.3,0-.5,0-.2,0-.3-.2-.3-.3,0-.2,0-.3.1-.4.1-.2.3-.2.6-.2h.6c.2,0,.4,0,.6,0,.1,0,.2,0,.3,0,0,0,.2,0,.3,0,.2,0,.3.1.4.3,0,0,.1.1.1.2,0,0,.1,0,.2.1,0,0,.1,0,.2,0,0,0,.1,0,.2,0,.2,0,.4-.2.6-.3.4-.1.8-.2,1.2-.3.4,0,.8,0,1.3,0,.4,0,.7.2,1.1.4.3.2.6.4.9.7.2.3.4.7.5,1.1.1.4.2.8.3,1.1,0,.4,0,.9,0,1.3,0,.4,0,.9-.1,1.3,0,.4-.1.8-.3,1.2-.2.4-.4.7-.6,1.1-.2.3-.5.5-.8.7-.3.2-.7.3-1,.4-.2,0-.4,0-.6,0-.2,0-.4,0-.6,0-.4,0-.8,0-1.1-.2-.2,0-.3-.2-.5-.3-.2-.1-.3-.2-.5-.2-.2,0-.2.3-.2.5,0,.2,0,.4,0,.6,0,.2,0,.4,0,.6,0,.2,0,.4.2.5.1.2.3.2.4.3.2,0,.3,0,.5,0,.2,0,.4,0,.5,0,.2,0,.3.1.4.3,0,.2,0,.3,0,.5,0,.2-.1.3-.3.4-.2.1-.3.2-.5.2-.2,0-.4,0-.6,0-.4,0-.9,0-1.3,0-.4,0-.9,0-1.3,0ZM162.6,106.3c.2,0,.3,0,.5,0,.1,0,.3,0,.4-.1.2,0,.4-.2.6-.4.2-.2.4-.5.5-.8,0-.3.2-.6.2-.9,0-.4,0-.7,0-1.1,0-.4,0-.7,0-1.1,0-.3,0-.7-.2-1-.1-.3-.3-.6-.4-.9-.2-.3-.5-.6-.9-.7-.4-.2-.8-.2-1.2-.1-.4,0-.8.2-1.1.4-.3.2-.5.5-.6.8-.1.3-.2.7-.2,1,0,.4-.1.8-.1,1.1,0,.4,0,.7.1,1.1,0,.3.1.7.2,1,0,.3.2.7.5.9.2.3.5.5.8.6.3.2.7.2,1,.2Z"/>
    <path class="st13" d="M179.5,98.2c-.1,0-.3,0-.5,0s-.4.1-.5.2c-.1.1-.1.3,0,.5,0,.2.2.3.4.3.2,0,.4,0,.6,0,.2,0,.4,0,.5,0,.2,0,.3.2.4.3,0,0,0,.2.1.4,0,.1,0,.3.1.4,0,.1.1.2.1.4.2.3.3.6.4,1,.1.3.3.6.4,1l.8,1.9c0,.3.2.6.3.9,0,.3.2.6.3.8.3.5.4,1.1.2,1.6-.1.6-.4,1-1,1.4-.2.1-.4.2-.6.3-.3.1-.5.1-.7,0-.2,0-.3-.3-.3-.5,0-.2,0-.4-.1-.6,0-.2-.2-.3-.4-.4-.2,0-.4,0-.6.1-.2.2-.2.4-.2.6,0,.3,0,.5.1.6.2.5.6.9,1.1,1.1.5.2,1,.3,1.6.2.3,0,.6-.2.9-.5.3-.3.5-.5.6-.9.2-.3.3-.6.5-.9s.2-.6.4-.9c.1-.3.3-.6.4-.9.1-.3.3-.5.4-.8.1-.3.3-.5.4-.8.2-.5.4-1,.5-1.5.2-.5.4-1,.6-1.5.2-.3.3-.6.4-.9.1-.3.2-.6.3-.9,0-.2.2-.4.3-.6.1-.2.3-.3.4-.4.1,0,.3,0,.4,0,.1,0,.3,0,.4,0,.1,0,.3,0,.4,0,.1,0,.2-.2.1-.3,0-.1-.1-.2-.2-.3-.1,0-.2-.1-.3-.1-.3,0-.6,0-.9,0-.3,0-.6,0-.9,0-.3,0-.6,0-.9,0h-.8c-.1,0-.3,0-.4,0-.1,0-.2,0-.3.2,0,0,0,.2,0,.4,0,.2.2.2.3.2s.3,0,.4,0c.2,0,.3,0,.4,0,.2,0,.2.2.2.4,0,.2,0,.3-.1.5,0,.2-.1.3-.2.4,0,.3-.2.5-.3.8,0,.3-.2.5-.3.8,0,.3-.2.6-.3.9,0,.3-.2.6-.2.9,0,.2-.1.4-.2.6,0,.2-.2.3-.4.5,0,0-.2.1-.3.2,0,0-.1,0-.2-.1,0-.1-.1-.2-.1-.4,0-.1,0-.3-.1-.4-.1-.2-.2-.5-.2-.7,0-.3,0-.5-.2-.8,0-.3-.2-.6-.3-.8-.1-.3-.3-.6-.3-.8,0-.2-.2-.5-.3-.8,0-.3,0-.6,0-.8,0-.2.2-.4.3-.4.1,0,.3,0,.4,0,.2,0,.3,0,.5-.1.2,0,.2-.2.2-.3,0-.1-.1-.2-.2-.3-.1-.1-.2-.2-.3-.2-.2,0-.3,0-.5,0-.2,0-.4,0-.5,0-.1,0-.2,0-.3,0-.1,0-.2,0-.3,0-.2,0-.3,0-.4,0,0,0-.2,0-.3,0-.1,0-.3,0-.4,0-.1,0-.3,0-.4,0Z"/>
    <path class="st13" d="M197.3,107.7c-.4,0-.9,0-1.3-.1-.4,0-.9-.3-1.3-.5-.2-.1-.4-.3-.5-.5-.1-.2-.3-.4-.4-.6-.1-.2-.2-.4-.3-.6,0-.2-.2-.4-.3-.7,0-.5-.1-1-.1-1.5,0-.5,0-1,.1-1.5,0-.5.2-1,.4-1.4.2-.4.5-.8.9-1.2.4-.3.8-.6,1.2-.7.4-.1.9-.2,1.4-.2.2,0,.5,0,.7,0,.3,0,.5,0,.7.1.4.1.7.3,1.1.6.2.2.3.3.4.5.2.2.3.3.4.5,0,.2.1.4.2.6,0,.2,0,.4.1.7v.7c.1.1.1.2.1.4,0,.1,0,.3,0,.4,0,.3,0,.5,0,.8s0,.5,0,.8c0,.4-.2.9-.4,1.4-.2.5-.4.9-.7,1.2-.3.3-.7.6-1.1.8-.4.2-.9.2-1.3.3ZM197.7,106.5c.6-.1,1.1-.5,1.4-1,.2-.3.3-.6.3-1,0-.3.1-.7.1-1,0-.4,0-.7,0-1.1,0-.3,0-.7-.2-1.1,0-.3-.2-.6-.3-.8-.1-.3-.3-.5-.6-.6-.5-.4-1.1-.5-1.7-.5-.4,0-.7.1-1,.4-.3.2-.5.5-.7.8-.2.3-.3.7-.3,1.1,0,.4,0,.8,0,1.1s0,.8,0,1.3c0,.4.1.9.3,1.3.2.4.4.7.8,1,.3.2.6.3.9.3.3,0,.7,0,1,0Z"/>
    <path class="st13" d="M210.5,107.7c-.2,0-.5,0-.7,0-.3,0-.5,0-.8,0-.2,0-.4-.1-.6-.2-.2,0-.4-.2-.6-.3-.3-.2-.6-.5-.8-.8-.2-.3-.3-.7-.4-1.1,0-.3,0-.5-.1-.8,0-.3,0-.5,0-.8,0-.1,0-.2,0-.4,0-.1,0-.2,0-.3,0-.1,0-.3,0-.4v-2.3c0-.1,0-.2,0-.3,0,0,0-.2-.1-.3,0,0-.1-.2-.2-.3-.2-.1-.3-.2-.5-.3-.1,0-.2,0-.3,0-.1,0-.2,0-.3,0-.3,0-.4-.2-.4-.4,0-.2.1-.4.3-.5.1,0,.2-.1.3-.1h.3c.1,0,.3,0,.4,0,.1,0,.3,0,.4,0,.2,0,.4,0,.6,0,.3,0,.4,0,.6.3,0,0,0,.2,0,.3v2.7c0,.3,0,.5,0,.8,0,.3,0,.5,0,.8s0,.5,0,.8c0,.3,0,.5,0,.8,0,.4.2.8.4,1.1.2.3.5.5.9.7.4.1.8.1,1.3,0,.4,0,.8-.2,1.1-.5.4-.3.7-.7.8-1.1.1-.4.2-.9.2-1.4,0-.3,0-.5,0-.8s0-.5,0-.8h0v-.8c0-.3,0-.6,0-.8,0-.2,0-.4-.1-.6,0-.2-.3-.3-.5-.4,0,0-.2,0-.3,0,0,0-.2,0-.3,0-.1,0-.2,0-.3-.1,0,0-.2-.1-.2-.2-.1-.2-.1-.4,0-.5.2-.1.4-.2.5-.2.1,0,.3,0,.4,0,.1,0,.3,0,.4,0h.4c.1,0,.3,0,.4,0,.2,0,.3,0,.5,0,.2,0,.3,0,.4.3,0,.2.1.4,0,.6,0,.2,0,.4,0,.6,0,.3,0,.5,0,.8,0,.3,0,.6,0,.8,0,.3,0,.5,0,.8,0,.2,0,.5,0,.7,0,.3,0,.5,0,.8,0,.3,0,.5,0,.8,0,.2,0,.3,0,.6,0,.2,0,.4,0,.6,0,.2,0,.4.2.5.1.1.3.2.5.2s.2,0,.3,0c.1,0,.2,0,.3,0,.2,0,.4.2.5.4,0,.2,0,.4,0,.5,0,.2-.2.3-.4.3-.3,0-.5,0-.8,0h-.8c-.2,0-.4,0-.6,0-.2,0-.3-.1-.5-.3,0,0-.1-.2-.2-.2,0,0-.1-.1-.2-.1-.1,0-.2,0-.3.1,0,0-.2.1-.3.2-.2.1-.4.2-.6.3-.2,0-.5.1-.7.2Z"/>
    <path class="st13" d="M223,107.4h-.6c-.2,0-.4,0-.6,0s-.2,0-.3,0h-.3c0,0-.2,0-.3,0-.1,0-.2,0-.3,0-.2,0-.3,0-.5,0-.2,0-.3-.1-.4-.3,0-.2,0-.3,0-.4.1-.1.2-.2.4-.3.2,0,.3,0,.5,0,.2,0,.3,0,.5,0,.3,0,.4-.2.5-.4,0-.2,0-.5,0-.7,0-.3,0-.5,0-.7,0-.4,0-.9,0-1.3,0-.4,0-.8,0-1.3,0-.2,0-.4,0-.6,0-.2,0-.4,0-.6,0-.2,0-.4,0-.6,0-.2,0-.4-.1-.5,0-.1-.2-.2-.3-.3-.1,0-.3,0-.5,0-.2,0-.3,0-.4,0-.1,0-.3,0-.4-.2,0-.1-.1-.2-.2-.4,0-.1,0-.3,0-.4.1-.2.3-.3.4-.3.2,0,.4,0,.5,0,.2,0,.4,0,.7,0,.2,0,.4,0,.7,0,.2,0,.3,0,.5,0,.1,0,.3.1.4.3.1.2.3.3.4.2.1,0,.3-.1.5-.2.3-.2.7-.3,1.1-.4.2,0,.4,0,.6-.1.2,0,.4,0,.6,0,.4,0,.8.2,1.1.4.6.3,1,.8,1.1,1.4,0,.3.1.6.1,1s-.1.6-.4.8c-.1,0-.3.1-.4.2-.2,0-.3,0-.4,0-.2,0-.3-.2-.3-.4,0-.2,0-.3,0-.5s0-.3,0-.5c0-.2,0-.3,0-.5,0-.1-.2-.3-.4-.4-.2,0-.3-.2-.5-.2-.3,0-.7-.1-1.1,0-.4,0-.7.2-1,.4-.3.2-.5.5-.6.9-.1.4-.2.7-.3,1.1,0,.2,0,.3,0,.5v.5c0,.2,0,.4,0,.6,0,.2,0,.4,0,.6,0,.2,0,.4,0,.7,0,.2,0,.4,0,.6,0,.2,0,.4,0,.5,0,.2.1.3.3.5.1.1.3.2.5.1.2,0,.4,0,.5,0,.1,0,.3,0,.4,0,.2,0,.2.2.2.3s0,.3-.2.4c-.1.1-.3.2-.4.3-.2,0-.4,0-.6,0-.2,0-.4,0-.7,0Z"/>
    <path class="st13" d="M242.1,107.7c-.2,0-.3,0-.5,0-.2,0-.3,0-.5,0-.1,0-.3,0-.4,0-.1,0-.2,0-.3-.2,0-.1-.1-.2-.1-.4,0-.2,0-.3.1-.4,0-.1.2-.2.4-.2.2,0,.3,0,.5,0,.2,0,.4,0,.5,0,.2,0,.3-.2.3-.4,0-.2,0-.3,0-.5,0-.2,0-.3,0-.5,0-.2,0-.3,0-.5v-.5c0-.7,0-1.4,0-2,0-.7,0-1.4,0-2v-2.1c0-.2,0-.4,0-.6,0-.2,0-.4-.1-.6,0-.2-.2-.3-.4-.4-.2,0-.3,0-.5,0-.2,0-.3,0-.5,0-.1,0-.2-.1-.3-.2,0-.1,0-.3,0-.4,0-.1.2-.2.3-.3.1,0,.3,0,.4,0,.2,0,.4,0,.5,0h1c.2,0,.3,0,.5,0,0,0,.1.1.2.2,0,0,0,.2,0,.3,0,.2,0,.4,0,.6,0,.2,0,.4,0,.6v.6c0,.2,0,.4,0,.6h0c0,.3,0,.7,0,1,0,.3,0,.7,0,1,0,.1,0,.3,0,.4,0,.1,0,.3,0,.4,0,.2,0,.4,0,.5v2.5c0,.3,0,.6,0,.9,0,.3,0,.6.1.9,0,.3.3.5.5.5.3,0,.5,0,.8,0,.2,0,.4,0,.5.2.1.2.2.3.1.6,0,.2-.1.3-.3.4-.2,0-.4.1-.6.1h-1.6c-.3,0-.7,0-1,0Z"/>
    <path class="st13" d="M253.2,107.7c-.4,0-.9,0-1.3-.1-.4,0-.9-.3-1.3-.5-.2-.1-.4-.3-.5-.5-.1-.2-.3-.4-.4-.6-.1-.2-.2-.4-.3-.6,0-.2-.2-.4-.3-.7,0-.5-.1-1-.1-1.5,0-.5,0-1,.1-1.5,0-.5.2-1,.4-1.4.2-.4.5-.8.9-1.2.4-.3.8-.6,1.2-.7.4-.1.9-.2,1.4-.2.2,0,.5,0,.7,0,.3,0,.5,0,.7.1.4.1.7.3,1.1.6.2.2.3.3.4.5.2.2.3.3.4.5,0,.2.1.4.2.6,0,.2,0,.4.1.7v.7c.1.1.1.2.1.4,0,.1,0,.3,0,.4,0,.3,0,.5,0,.8s0,.5,0,.8c0,.4-.2.9-.4,1.4-.2.5-.4.9-.7,1.2-.3.3-.7.6-1.1.8-.4.2-.9.2-1.3.3ZM253.6,106.5c.6-.1,1.1-.5,1.4-1,.2-.3.3-.6.3-1,0-.3.1-.7.1-1,0-.4,0-.7,0-1.1,0-.3,0-.7-.2-1.1,0-.3-.2-.6-.3-.8-.1-.3-.3-.5-.6-.6-.5-.4-1.1-.5-1.7-.5-.4,0-.7.1-1,.4-.3.2-.5.5-.7.8-.2.3-.3.7-.3,1.1,0,.4,0,.8,0,1.1s0,.8,0,1.3c0,.4.1.9.3,1.3.2.4.4.7.8,1,.3.2.6.3.9.3.3,0,.7,0,1,0Z"/>
    <path class="st13" d="M264.8,107.7c-.4,0-.9,0-1.3-.1-.4,0-.9-.3-1.3-.5-.2-.1-.4-.3-.5-.5-.1-.2-.3-.4-.4-.6-.1-.2-.2-.4-.3-.6,0-.2-.2-.4-.3-.7,0-.5-.1-1-.1-1.5,0-.5,0-1,.1-1.5,0-.5.2-1,.4-1.4.2-.4.5-.8.9-1.2.4-.3.8-.6,1.2-.7.4-.1.9-.2,1.4-.2.2,0,.5,0,.7,0,.3,0,.5,0,.7.1.4.1.7.3,1.1.6.2.2.3.3.4.5.2.2.3.3.4.5,0,.2.1.4.2.6,0,.2,0,.4.1.7v.7c.1.1.1.2.1.4,0,.1,0,.3,0,.4,0,.3,0,.5,0,.8s0,.5,0,.8c0,.4-.2.9-.4,1.4-.2.5-.4.9-.7,1.2-.3.3-.7.6-1.1.8-.4.2-.9.2-1.3.3ZM265.3,106.5c.6-.1,1.1-.5,1.4-1,.2-.3.3-.6.3-1,0-.3.1-.7.1-1,0-.4,0-.7,0-1.1,0-.3,0-.7-.2-1.1,0-.3-.2-.6-.3-.8-.1-.3-.3-.5-.6-.6-.5-.4-1.1-.5-1.7-.5-.4,0-.7.1-1,.4-.3.2-.5.5-.7.8-.2.3-.3.7-.3,1.1,0,.4,0,.8,0,1.1s0,.8,0,1.3c0,.4.1.9.3,1.3.2.4.4.7.8,1,.3.2.6.3.9.3.3,0,.7,0,1,0Z"/>
    <path class="st13" d="M273.3,107.6c-.2,0-.3,0-.4,0s-.1-.2-.2-.4c0-.2,0-.3,0-.4,0-.3,0-.5,0-.8,0-.3,0-.5,0-.8,0-.2,0-.3,0-.5,0-.2,0-.4,0-.5s.1-.3.3-.4c.2,0,.3,0,.4,0,0,0,.2.2.2.3,0,.1,0,.3.1.4,0,.2,0,.4.1.6,0,.2.2.4.4.5.2.1.4.3.6.4.3,0,.5.2.7.3.5.1,1,.2,1.6.3.6,0,1.1-.1,1.5-.4.4-.3.6-.6.5-1,0-.4-.2-.7-.5-1-.2-.1-.4-.3-.6-.4-.2,0-.4-.2-.6-.2-.3,0-.5,0-.8,0-.3,0-.5,0-.8-.1-.3,0-.5-.1-.7-.2-.2,0-.5-.2-.7-.3-.2,0-.4-.2-.6-.3-.2-.1-.3-.3-.4-.5-.2-.4-.3-.8-.3-1.3,0-.5.2-.9.4-1.3.1-.2.3-.3.4-.5.2-.2.3-.3.5-.4.2-.1.5-.2.7-.3.3,0,.5-.1.8-.1.3,0,.5,0,.8,0,.3,0,.5,0,.8,0,.1,0,.3,0,.4,0,.1,0,.2,0,.4.1,0,0,.2,0,.4.1.2,0,.3,0,.4,0,.1,0,.2-.1.3-.2,0,0,.2-.2.3-.2,0,0,.2,0,.3,0,.1,0,.2,0,.3.1,0,0,0,.1.1.2,0,0,0,.1,0,.2,0,.2,0,.3,0,.5,0,.1,0,.3,0,.4,0,.3,0,.6,0,.8,0,.3,0,.6-.1.8,0,.2-.1.3-.3.4-.2,0-.4.1-.6,0-.2,0-.3-.2-.3-.3,0-.1,0-.3,0-.4,0-.2,0-.3,0-.4,0-.3,0-.5-.2-.7-.1-.2-.3-.4-.5-.5-.2-.1-.5-.2-.7-.2-.1,0-.3,0-.4,0-.1,0-.3,0-.4,0-.3,0-.6,0-.9,0-.3,0-.7.2-.9.4-.3.2-.4.5-.4.8,0,.3.1.6.3.9.2.2.5.4.8.5.3.1.6.2.9.3.3,0,.5.1.8.1.3,0,.5,0,.8.1.3,0,.5.1.8.2.3,0,.5.2.8.3.2,0,.4.2.5.3.2.1.3.3.4.5,0,.2.1.5.2.7,0,.3,0,.5,0,.8,0,.5-.3.9-.6,1.3-.3.3-.7.6-1.2.7-.5.2-1,.3-1.5.3-.5,0-1,0-1.4,0-.3,0-.5-.1-.8-.2-.3,0-.5-.1-.8-.2,0,0-.2,0-.3,0-.1,0-.2,0-.3,0,0,0-.2.2-.2.3,0,.1-.1.2-.2.3Z"/>
    <path class="st13" d="M288.7,107.7c-.3,0-.7,0-1,0-.3,0-.7,0-1-.2-.5-.2-1-.6-1.3-1.1-.3-.4-.4-.9-.5-1.4,0-.5-.1-1-.1-1.5,0-.5,0-1,0-1.5,0-.7.2-1.3.5-1.9.3-.6.8-1,1.3-1.2.8-.4,1.5-.5,2.1-.5.1,0,.3,0,.4,0,.1,0,.3,0,.4,0,.1,0,.2,0,.3.1.2,0,.3,0,.5.1.1,0,.3.1.4.2.6.3,1,.8,1.2,1.5.3.9.5,1.6.4,2.2,0,.4-.2.6-.5.7s-.6.1-.9.1h-.2c0,0-.1,0-.2,0h-.4c-.1,0-.3,0-.4,0s-.2,0-.3,0h-.3c0,0-.2,0-.3,0h-.6c0,0-.2,0-.3,0h-.9c0,0-.2,0-.3,0h-.3c0,0-.1,0-.1,0-.1,0-.2.2-.2.5h0c0,.3,0,.5,0,.6,0,.2,0,.3.1.5.3.8.7,1.3,1.3,1.5.4.1.7.2,1.1.2.4,0,.8-.1,1.1-.3s.3-.2.5-.3c.2-.1.3-.2.4-.3,0,0,.1-.2.2-.3,0,0,.1-.2.2-.4,0,0,0-.1,0-.1,0,0,0-.1,0-.2.1-.3.3-.5.5-.5.3,0,.4,0,.5.4,0,.3,0,.7,0,1,0,.3-.3.6-.5.8-.6.5-1.2.9-1.8,1-.3,0-.7,0-1,0ZM290.1,102.3h.5c.2,0,.4-.1.4-.3,0-.2,0-.3,0-.5s-.1-.4-.2-.6c-.2-.4-.5-.7-.8-.9-.7-.4-1.6-.5-2.6-.2-.4.1-.7.3-.9.6l-.3.6c0,.2-.2.4-.2.6,0,.5.2.7.9.7h3.1Z"/>
    <path class="st13" d="M308.7,107.6h-.6c-.2,0-.4,0-.5,0-.3,0-.6-.2-.8-.4-.2-.2-.4-.4-.5-.7-.2-.3-.3-.7-.3-1.1,0-.4,0-.8,0-1.2s0-.4,0-.6c0-.2,0-.4,0-.6,0-.2,0-.4,0-.6v-.6c0-.2,0-.4,0-.6,0-.2,0-.4,0-.6v-.5c0-.2,0-.3-.1-.5,0-.1-.2-.2-.3-.2-.1,0-.3,0-.4,0-.1,0-.3,0-.4,0-.1,0-.2-.1-.3-.3,0-.2,0-.4,0-.5,0-.1.2-.2.4-.2.2,0,.3,0,.5,0,.2,0,.3,0,.5,0,.2,0,.3-.2.3-.4,0-.2,0-.4,0-.5,0-.2,0-.4,0-.6v-.6c0-.2,0-.3,0-.4,0-.2.1-.3.3-.4.1,0,.3,0,.4,0,.2,0,.3,0,.4.2.1.1.2.3.2.5v.6c0,.2,0,.4,0,.6,0,.2,0,.4,0,.6,0,.1,0,.3.1.4,0,0,.2.1.4.2.2,0,.4,0,.6,0,.2,0,.4,0,.6,0,.1,0,.3,0,.4,0,.2,0,.3,0,.4.3,0,.2,0,.3,0,.4,0,.1-.2.2-.3.3-.2,0-.4,0-.6.1-.2,0-.4,0-.6,0h-.5c-.2,0-.3,0-.4.2,0,0,0,.2,0,.3,0,0,0,.2,0,.2v.4c0,0,0,.2,0,.3,0,.4,0,.9,0,1.3,0,.4,0,.8,0,1.3,0,.2,0,.4,0,.6,0,.2,0,.4,0,.6s0,.4,0,.6c0,.2,0,.4.2.5,0,.2.1.3.2.5,0,.2.2.3.3.4.1,0,.3.1.4.1.2,0,.3,0,.4,0,.3,0,.4-.2.5-.4.1-.2.2-.4.2-.7,0-.3,0-.5.1-.7,0-.2,0-.3,0-.5s0-.3.2-.5.2-.2.4-.2c.2,0,.3,0,.5,0,.2,0,.2.2.2.4v.5c0,.4,0,.7-.2,1.1-.1.3-.3.6-.5.9-.2.3-.5.6-.8.7-.3.2-.6.2-.9.3Z"/>
    <path class="st13" d="M323,107.8c-.2,0-.3,0-.5,0h-.5c-.1,0-.3,0-.5,0-.2,0-.3,0-.4,0-.2,0-.3-.2-.4-.5,0-.3,0-.5.2-.6.2-.1.3-.2.5-.2.2,0,.4,0,.5,0,.2,0,.4,0,.5-.1.2-.1.3-.3.3-.6s0-.3,0-.4c0-.2,0-.3,0-.5,0-.3,0-.6,0-.9,0-.3,0-.6,0-1,0-.4,0-.7,0-1.1,0-.4,0-.7-.2-1.1,0-.4-.3-.7-.6-.9-.3-.3-.8-.5-1.2-.5-.3,0-.5,0-.8,0-.3,0-.6,0-.8.2-.4.2-.6.4-.8.8-.2.3-.3.7-.4,1.1,0,.4-.1.8-.2,1.1,0,.3,0,.7,0,1v1c0,.2,0,.3,0,.6,0,.2,0,.4,0,.6,0,.2.1.3.3.5.2.1.3.2.5.2s.4,0,.5,0c.2,0,.4,0,.5,0,.2,0,.3.3.3.5s0,.4-.2.6c0,0-.2.1-.4.1-.1,0-.2,0-.3,0h-1.1c-.3,0-.7,0-1,0h-1c-.2,0-.3,0-.5,0-.2,0-.4,0-.5-.2-.1,0-.2-.2-.2-.4,0-.2,0-.4.2-.5.1,0,.3-.2.4-.2.2,0,.3,0,.5,0h.4c.2,0,.3,0,.4-.1,0,0,.2-.2.2-.4,0-.2,0-.3,0-.4,0-.2,0-.3,0-.5,0-.2,0-.3,0-.5v-1c0-.7,0-1.3,0-1.9,0-.6,0-1.3,0-2.1,0-.3,0-.6,0-.9,0-.3,0-.6,0-1.1,0-.2,0-.4,0-.6,0-.2,0-.4-.1-.5,0-.1-.2-.2-.4-.1-.2,0-.3,0-.5,0-.1,0-.3,0-.4,0-.1,0-.2,0-.3-.1-.2-.2-.3-.4,0-.6,0-.1.2-.2.3-.2.1,0,.2,0,.4,0,.2,0,.4,0,.5,0h1c.2,0,.3,0,.4,0,.1,0,.2.2.3.3,0,.1,0,.3,0,.4,0,.2,0,.3,0,.4,0,.2,0,.3,0,.5s0,.3,0,.5c0,.1,0,.3,0,.4,0,.1,0,.3,0,.4,0,.1,0,.3,0,.5,0,.3.2.3.6,0,.3-.2.5-.3.8-.4.2,0,.5-.1.7-.2.3,0,.6,0,.9,0,.3,0,.6,0,.9,0,.5.1.9.3,1.4.6.4.3.7.6.9,1.1,0,.3.1.6.1.9,0,.3,0,.6,0,.9v1c0,.3,0,.7,0,1v.5c0,.2,0,.3,0,.5,0,.2,0,.4,0,.6,0,.2,0,.4,0,.5,0,0,0,.2.1.3,0,0,.1.2.3.2.1,0,.3,0,.4,0,.1,0,.3,0,.4,0,.2,0,.4,0,.6.2.2.1.3.3.2.6,0,.3-.2.5-.5.5s-.5,0-.7,0c-.3,0-.7,0-1,0-.3,0-.6,0-1,0Z"/>
    <path class="st13" d="M333.9,107.7c-.4,0-.9,0-1.3-.1-.4,0-.9-.3-1.3-.5-.2-.1-.4-.3-.5-.5-.1-.2-.3-.4-.4-.6-.1-.2-.2-.4-.3-.6,0-.2-.2-.4-.3-.7,0-.5-.1-1-.1-1.5,0-.5,0-1,.1-1.5,0-.5.2-1,.4-1.4.2-.4.5-.8.9-1.2.4-.3.8-.6,1.2-.7.4-.1.9-.2,1.4-.2.2,0,.5,0,.7,0,.3,0,.5,0,.7.1.4.1.7.3,1.1.6.2.2.3.3.4.5.2.2.3.3.4.5,0,.2.1.4.2.6,0,.2,0,.4.1.7v.7c.1.1.1.2.1.4,0,.1,0,.3,0,.4,0,.3,0,.5,0,.8s0,.5,0,.8c0,.4-.2.9-.4,1.4-.2.5-.4.9-.7,1.2-.3.3-.7.6-1.1.8-.4.2-.9.2-1.3.3ZM334.4,106.5c.6-.1,1.1-.5,1.4-1,.2-.3.3-.6.3-1,0-.3.1-.7.1-1,0-.4,0-.7,0-1.1,0-.3,0-.7-.2-1.1,0-.3-.2-.6-.3-.8-.1-.3-.3-.5-.6-.6-.5-.4-1.1-.5-1.7-.5-.4,0-.7.1-1,.4-.3.2-.5.5-.7.8-.2.3-.3.7-.3,1.1,0,.4,0,.8,0,1.1s0,.8,0,1.3c0,.4.1.9.3,1.3.2.4.4.7.8,1,.3.2.6.3.9.3.3,0,.7,0,1,0Z"/>
    <path class="st13" d="M347.1,107.7c-.2,0-.5,0-.7,0-.3,0-.5,0-.8,0-.2,0-.4-.1-.6-.2-.2,0-.4-.2-.6-.3-.3-.2-.6-.5-.8-.8-.2-.3-.3-.7-.4-1.1,0-.3,0-.5-.1-.8,0-.3,0-.5,0-.8,0-.1,0-.2,0-.4,0-.1,0-.2,0-.3,0-.1,0-.3,0-.4v-2.3c0-.1,0-.2,0-.3,0,0,0-.2-.1-.3,0,0-.1-.2-.2-.3-.2-.1-.3-.2-.5-.3-.1,0-.2,0-.3,0-.1,0-.2,0-.3,0-.3,0-.4-.2-.4-.4,0-.2.1-.4.3-.5.1,0,.2-.1.3-.1h.3c.1,0,.3,0,.4,0,.1,0,.3,0,.4,0,.2,0,.4,0,.6,0,.3,0,.4,0,.6.3,0,0,0,.2,0,.3v2.7c0,.3,0,.5,0,.8,0,.3,0,.5,0,.8s0,.5,0,.8c0,.3,0,.5,0,.8,0,.4.2.8.4,1.1.2.3.5.5.9.7.4.1.8.1,1.3,0,.4,0,.8-.2,1.1-.5.4-.3.7-.7.8-1.1.1-.4.2-.9.2-1.4,0-.3,0-.5,0-.8s0-.5,0-.8h0v-.8c0-.3,0-.6,0-.8,0-.2,0-.4-.1-.6,0-.2-.3-.3-.5-.4,0,0-.2,0-.3,0,0,0-.2,0-.3,0-.1,0-.2,0-.3-.1,0,0-.2-.1-.2-.2-.1-.2-.1-.4,0-.5.2-.1.4-.2.5-.2.1,0,.3,0,.4,0,.1,0,.3,0,.4,0h.4c.1,0,.3,0,.4,0,.2,0,.3,0,.5,0,.2,0,.3,0,.4.3,0,.2.1.4,0,.6,0,.2,0,.4,0,.6,0,.3,0,.5,0,.8,0,.3,0,.6,0,.8,0,.3,0,.5,0,.8,0,.2,0,.5,0,.7,0,.3,0,.5,0,.8,0,.3,0,.5,0,.8,0,.2,0,.3,0,.6,0,.2,0,.4,0,.6,0,.2,0,.4.2.5.1.1.3.2.5.2s.2,0,.3,0c.1,0,.2,0,.3,0,.2,0,.4.2.5.4,0,.2,0,.4,0,.5,0,.2-.2.3-.4.3-.3,0-.5,0-.8,0h-.8c-.2,0-.4,0-.6,0-.2,0-.3-.1-.5-.3,0,0-.1-.2-.2-.2,0,0-.1-.1-.2-.1-.1,0-.2,0-.3.1,0,0-.2.1-.3.2-.2.1-.4.2-.6.3-.2,0-.5.1-.7.2Z"/>
    <path class="st13" d="M360.6,111.3c-.4,0-.9,0-1.5,0-.5,0-1.1-.1-1.6-.3-.5-.2-1-.4-1.3-.7-.3-.3-.6-.8-.6-1.4,0-.2,0-.5,0-.7,0-.2.1-.5.2-.6,0-.1.2-.2.3-.3.1-.1.3-.2.4-.3.1-.1.2-.3.2-.4s0-.2-.1-.3c0,0-.1-.2-.2-.3s-.2-.2-.2-.3c0,0-.1-.2-.1-.3,0-.2,0-.5,0-.7,0-.3.2-.5.3-.7.1-.1.3-.2.4-.3.2,0,.3-.2.3-.4,0,0,0-.2,0-.3,0,0,0-.2,0-.3,0-.3-.2-.5-.2-.8,0-.5,0-.9.2-1.4.1-.5.4-.9.8-1.2.4-.4.9-.6,1.5-.7.6,0,1.1-.2,1.6-.2.3,0,.4,0,.5-.3,0-.2.2-.4.3-.5.1-.2.3-.3.5-.4.2-.1.4-.2.6-.3.3,0,.7-.1,1-.1.4,0,.7.1,1,.3.3.2.6.4.8.7.1.2.2.5.3.8,0,.3,0,.5-.1.8,0,.2-.2.3-.4.4-.2,0-.4.1-.5,0-.2,0-.4-.2-.5-.4,0-.2-.1-.4,0-.6,0,0,0-.2,0-.3,0,0,0-.2,0-.3,0,0-.2-.1-.3-.1-.1,0-.2,0-.3,0-.1,0-.3,0-.4.1-.2,0-.3.2-.4.3,0,.1-.1.2,0,.4,0,.1.1.2.3.3.1,0,.2.1.3.2.2.2.3.4.5.6.1.2.2.4.3.6,0,.2,0,.5.1.7,0,.3,0,.5,0,.8,0,.3-.1.6-.3.8-.2.5-.5.8-.9,1.1-.4.3-.9.4-1.3.6-.3,0-.6,0-.8,0-.3,0-.5,0-.8,0-.3,0-.6,0-.8-.1-.1,0-.3,0-.4-.1-.1,0-.3-.1-.4-.1-.2,0-.4,0-.5.2-.1.2-.2.3-.1.5,0,.2.1.4.3.5.2.1.3.2.6.3.3,0,.5.1.8.1h.9c.6,0,1.1,0,1.7,0,.6,0,1.1.2,1.7.4.2,0,.4.2.7.3.2,0,.4.2.6.4.1.2.2.3.3.5,0,.2.1.4.1.6,0,.5,0,1-.2,1.5-.2.5-.6.8-1,1.1-.3.2-.5.3-.8.3-.3,0-.6.1-.9.2-.1,0-.2,0-.4.1-.1,0-.3,0-.4,0h-.9ZM360.8,103.5c.5,0,.9,0,1.2-.3.4-.3.6-.6.7-1.1,0-.4,0-.9,0-1.3,0-.5-.3-.8-.7-1.1-.4-.3-.9-.4-1.4-.4-.5,0-1,.1-1.4.3-.3.1-.5.4-.7.6-.2.3-.2.6-.3.9,0,.3,0,.6.1.9.1.3.3.6.5.8.3.2.6.3.9.4.3,0,.7.1,1,.1ZM360.4,110.3c.3,0,.6,0,1,0,.3,0,.6,0,1-.1.3,0,.5-.1.7-.3.2,0,.4-.3.6-.5.3-.4.3-.8.2-1.3-.1-.3-.3-.6-.5-.8-.2-.2-.5-.4-.8-.5-.3,0-.7-.2-1.1-.2-.3,0-.7,0-1.1,0s-.6,0-.9,0c-.3,0-.6,0-.9.1-.2,0-.5.2-.7.3-.2.1-.4.3-.5.5,0,.2-.1.5-.1.8,0,.3,0,.6.1.8,0,.2.3.4.5.5.2.1.4.2.7.3.2,0,.3,0,.5,0,.2,0,.3,0,.5,0,.2,0,.3,0,.5,0,.2,0,.3,0,.5,0Z"/>
    <path class="st13" d="M377.1,107.8c-.2,0-.3,0-.5,0h-.5c-.1,0-.3,0-.5,0-.2,0-.3,0-.4,0-.2,0-.3-.2-.4-.5,0-.3,0-.5.2-.6.2-.1.3-.2.5-.2.2,0,.4,0,.5,0,.2,0,.4,0,.5-.1.2-.1.3-.3.3-.6s0-.3,0-.4c0-.2,0-.3,0-.5,0-.3,0-.6,0-.9,0-.3,0-.6,0-1,0-.4,0-.7,0-1.1,0-.4,0-.7-.2-1.1,0-.4-.3-.7-.6-.9-.3-.3-.8-.5-1.2-.5-.3,0-.5,0-.8,0-.3,0-.6,0-.8.2-.4.2-.6.4-.8.8-.2.3-.3.7-.4,1.1,0,.4-.1.8-.2,1.1,0,.3,0,.7,0,1v1c0,.2,0,.3,0,.6,0,.2,0,.4,0,.6,0,.2.1.3.3.5.2.1.3.2.5.2s.4,0,.5,0c.2,0,.4,0,.5,0,.2,0,.3.3.3.5s0,.4-.2.6c0,0-.2.1-.4.1-.1,0-.2,0-.3,0h-1.1c-.3,0-.7,0-1,0h-1c-.2,0-.3,0-.5,0-.2,0-.4,0-.5-.2-.1,0-.2-.2-.2-.4,0-.2,0-.4.2-.5.1,0,.3-.2.4-.2.2,0,.3,0,.5,0h.4c.2,0,.3,0,.4-.1,0,0,.2-.2.2-.4,0-.2,0-.3,0-.4,0-.2,0-.3,0-.5,0-.2,0-.3,0-.5v-1c0-.7,0-1.3,0-1.9,0-.6,0-1.3,0-2.1,0-.3,0-.6,0-.9,0-.3,0-.6,0-1.1,0-.2,0-.4,0-.6,0-.2,0-.4-.1-.5,0-.1-.2-.2-.4-.1-.2,0-.3,0-.5,0-.1,0-.3,0-.4,0-.1,0-.2,0-.3-.1-.2-.2-.3-.4,0-.6,0-.1.2-.2.3-.2.1,0,.2,0,.4,0,.2,0,.4,0,.5,0h1c.2,0,.3,0,.4,0,.1,0,.2.2.3.3,0,.1,0,.3,0,.4,0,.2,0,.3,0,.4,0,.2,0,.3,0,.5s0,.3,0,.5c0,.1,0,.3,0,.4,0,.1,0,.3,0,.4,0,.1,0,.3,0,.5,0,.3.2.3.6,0,.3-.2.5-.3.8-.4.2,0,.5-.1.7-.2.3,0,.6,0,.9,0,.3,0,.6,0,.9,0,.5.1.9.3,1.4.6.4.3.7.6.9,1.1,0,.3.1.6.1.9,0,.3,0,.6,0,.9v1c0,.3,0,.7,0,1v.5c0,.2,0,.3,0,.5,0,.2,0,.4,0,.6,0,.2,0,.4,0,.5,0,0,0,.2.1.3,0,0,.1.2.3.2.1,0,.3,0,.4,0,.1,0,.3,0,.4,0,.2,0,.4,0,.6.2.2.1.3.3.2.6,0,.3-.2.5-.5.5s-.5,0-.7,0c-.3,0-.7,0-1,0-.3,0-.6,0-1,0Z"/>
    <path class="st13" d="M388,107.6h-.6c-.2,0-.4,0-.5,0-.3,0-.6-.2-.8-.4-.2-.2-.4-.4-.5-.7-.2-.3-.3-.7-.3-1.1,0-.4,0-.8,0-1.2s0-.4,0-.6c0-.2,0-.4,0-.6,0-.2,0-.4,0-.6v-.6c0-.2,0-.4,0-.6,0-.2,0-.4,0-.6v-.5c0-.2,0-.3-.1-.5,0-.1-.2-.2-.3-.2-.1,0-.3,0-.4,0-.1,0-.3,0-.4,0-.1,0-.2-.1-.3-.3,0-.2,0-.4,0-.5,0-.1.2-.2.4-.2.2,0,.3,0,.5,0,.2,0,.3,0,.5,0,.2,0,.3-.2.3-.4,0-.2,0-.4,0-.5,0-.2,0-.4,0-.6v-.6c0-.2,0-.3,0-.4,0-.2.1-.3.3-.4.1,0,.3,0,.4,0,.2,0,.3,0,.4.2.1.1.2.3.2.5v.6c0,.2,0,.4,0,.6,0,.2,0,.4,0,.6,0,.1,0,.3.1.4,0,0,.2.1.4.2.2,0,.4,0,.6,0,.2,0,.4,0,.6,0,.1,0,.3,0,.4,0,.2,0,.3,0,.4.3,0,.2,0,.3,0,.4,0,.1-.2.2-.3.3-.2,0-.4,0-.6.1-.2,0-.4,0-.6,0h-.5c-.2,0-.3,0-.4.2,0,0,0,.2,0,.3,0,0,0,.2,0,.2v.4c0,0,0,.2,0,.3,0,.4,0,.9,0,1.3,0,.4,0,.8,0,1.3,0,.2,0,.4,0,.6,0,.2,0,.4,0,.6s0,.4,0,.6c0,.2,0,.4.2.5,0,.2.1.3.2.5,0,.2.2.3.3.4.1,0,.3.1.4.1.2,0,.3,0,.4,0,.3,0,.4-.2.5-.4.1-.2.2-.4.2-.7,0-.3,0-.5.1-.7,0-.2,0-.3,0-.5s0-.3.2-.5.2-.2.4-.2c.2,0,.3,0,.5,0,.2,0,.2.2.2.4v.5c0,.4,0,.7-.2,1.1-.1.3-.3.6-.5.9-.2.3-.5.6-.8.7-.3.2-.6.2-.9.3Z"/>
    <path class="st13" d="M394.8,107.6c-.2,0-.3,0-.4,0s-.1-.2-.2-.4c0-.2,0-.3,0-.4,0-.3,0-.5,0-.8,0-.3,0-.5,0-.8,0-.2,0-.3,0-.5,0-.2,0-.4,0-.5s.1-.3.3-.4c.2,0,.3,0,.4,0,0,0,.2.2.2.3,0,.1,0,.3.1.4,0,.2,0,.4.1.6,0,.2.2.4.4.5.2.1.4.3.6.4.3,0,.5.2.7.3.5.1,1,.2,1.6.3.6,0,1.1-.1,1.5-.4.4-.3.6-.6.5-1,0-.4-.2-.7-.5-1-.2-.1-.4-.3-.6-.4-.2,0-.4-.2-.6-.2-.3,0-.5,0-.8,0-.3,0-.5,0-.8-.1-.3,0-.5-.1-.7-.2-.2,0-.5-.2-.7-.3-.2,0-.4-.2-.6-.3-.2-.1-.3-.3-.4-.5-.2-.4-.3-.8-.3-1.3,0-.5.2-.9.4-1.3.1-.2.3-.3.4-.5.2-.2.3-.3.5-.4.2-.1.5-.2.7-.3.3,0,.5-.1.8-.1.3,0,.5,0,.8,0,.3,0,.5,0,.8,0,.1,0,.3,0,.4,0,.1,0,.2,0,.4.1,0,0,.2,0,.4.1.2,0,.3,0,.4,0,.1,0,.2-.1.3-.2,0,0,.2-.2.3-.2,0,0,.2,0,.3,0,.1,0,.2,0,.3.1,0,0,0,.1.1.2,0,0,0,.1,0,.2,0,.2,0,.3,0,.5,0,.1,0,.3,0,.4,0,.3,0,.6,0,.8,0,.3,0,.6-.1.8,0,.2-.1.3-.3.4-.2,0-.4.1-.6,0-.2,0-.3-.2-.3-.3,0-.1,0-.3,0-.4,0-.2,0-.3,0-.4,0-.3,0-.5-.2-.7-.1-.2-.3-.4-.5-.5-.2-.1-.5-.2-.7-.2-.1,0-.3,0-.4,0-.1,0-.3,0-.4,0-.3,0-.6,0-.9,0-.3,0-.7.2-.9.4-.3.2-.4.5-.4.8,0,.3.1.6.3.9.2.2.5.4.8.5.3.1.6.2.9.3.3,0,.5.1.8.1.3,0,.5,0,.8.1.3,0,.5.1.8.2.3,0,.5.2.8.3.2,0,.4.2.5.3.2.1.3.3.4.5,0,.2.1.5.2.7,0,.3,0,.5,0,.8,0,.5-.3.9-.6,1.3-.3.3-.7.6-1.2.7-.5.2-1,.3-1.5.3-.5,0-1,0-1.4,0-.3,0-.5-.1-.8-.2-.3,0-.5-.1-.8-.2,0,0-.2,0-.3,0-.1,0-.2,0-.3,0,0,0-.2.2-.2.3,0,.1-.1.2-.2.3Z"/>
  </g>
  <g>
    <path class="st11" d="M358.5,76.4l-16.7-38-9.2,30-18.3-5.6L333.3,1l17.3,5.3,16.6,38.5,9.4-30.5,18.3,5.6-19,61.8-17.4-5.3Z"/>
    <path class="st1" d="M86.9,6c4-1.1,7.8-1.1,11.5,0,3.6,1,6.8,2.9,9.4,5.6s4.5,6.1,5.6,10.1l.3,1.2c1.1,4,1.2,7.9.3,11.6-.9,3.7-2.6,6.9-5.3,9.6-2.6,2.7-5.9,4.6-10,5.6l-15.5,4.2,5.6,20.9-20.8,5.6L50.6,15.8l36.3-9.8ZM79.1,38.8l8.5-2.3c2.2-.6,3.7-1.6,4.5-3,.8-1.4.9-3.1.4-5l-.2-.8c-.5-2-1.5-3.4-2.9-4.2-1.4-.8-3.2-.9-5.4-.3l-8.5,2.3,3.6,13.3Z"/>
    <path class="st9" d="M13.8,4.1l53.8,12-3.3,14.9-33.8-7.5-1.9,8.6,28.9,6.4-3.2,14.3-28.9-6.4-2.1,9.5,34.4,7.7-3.3,14.9L0,66.2,13.8,4.1Z"/>
    <path class="st4" d="M171.7,1.5c3.9-1.4,7.6-1.8,11.3-1.1,3.7.7,6.9,2.2,9.7,4.7,2.8,2.5,5,5.6,6.4,9.5l.4,1.2c1.4,3.9,1.9,7.7,1.4,11.4-.5,3.7-2,7.1-4.3,9.9-2.3,2.9-5.5,5.1-9.3,6.5l-14.9,5.5,7.4,20-19.9,7.4-23-62L171.7,1.5ZM167,34.4l8.2-3c2.1-.8,3.5-1.9,4.1-3.4.7-1.5.7-3.2,0-5l-.3-.7c-.7-1.9-1.8-3.2-3.2-3.9-1.4-.7-3.2-.6-5.3.2l-8.2,3,4.7,12.8Z"/>
    <path class="st11" d="M112.1,74.4l5.5-68,21.8,1.8-5.5,68-21.8-1.8Z"/>
    <path class="st10" d="M237.8,75.1l5.6-24.1-22.4-5.2-5.6,24.1-20.4-4.7L209.6,1.7l20.4,4.7-5.4,23.2,22.4,5.2,5.4-23.2,20.4,4.7-14.7,63.5-20.4-4.7Z"/>
    <path class="st5" d="M308,75.2l-1.4-9.5-22.6-3.3-4,8.7-21.1-3.1,32.9-60.9,24,3.5,14.1,67.8-21.9-3.2ZM290.5,48.7l13.9,2-3.4-23.9h-.4c0,0-10.2,21.9-10.2,21.9Z"/>
    <path class="st2" d="M431.6,73.7l-22.1,2.9-3.5-26.7-32.8-38.6,25.4-3.3,16.2,21.2h.4c0,0,10.2-24.7,10.2-24.7l24.1-3.2-21.4,45.7,3.5,26.7Z"/>
  </g>
</svg>
