<?xml version="1.0" encoding="UTF-8"?>
<svg id="Layer_1" xmlns="http://www.w3.org/2000/svg" version="1.1" viewBox="0 0 445.1 310.3">
  <defs>
    <style>
      .st0 {
        fill: #fff;
      }

      .st0, .st1 {
        opacity: .8;
      }

      .st2 {
        fill: #ffb5b5;
      }

      .st1 {
        fill: #468157;
      }
    </style>
  </defs>
  <path class="st0" d="M57.8,0l224.5,49.9-13.9,62.3-141.1-31.4-8,35.8,120.8,26.9-13.3,59.6-120.8-26.9-8.8,39.6,143.8,32-13.9,62.3L0,259.6,57.8,0Z"/>
  <path class="st1" d="M57.8.2l224.5,49.9-13.9,62.3-141.1-31.4-8,35.8,120.8,26.9-13.3,59.6-120.8-26.9-8.8,39.6,143.8,32-13.9,62.3L0,259.8,57.8.2Z"/>
  <path class="st2" d="M269.6,73.6c10.2,1.2,20,4.9,28.6,10.5,5-2.8,10.3-4.9,15.8-6.4-19.8-8.7-42.6-8.4-63.3-3.2,6.2-1.2,12.6-1.5,19-.8ZM319.2,85.6c2.3-.1,4.6-.1,7,0h-.2c-.3-.4-.6-.7-.9-.9-1.7.2-3.3.5-5,.8-.3,0-.6.1-.9.2ZM217.5,87.3c2.2-.3,4.5-.6,6.7-.8,1.7-1.3,3.4-2.5,5.2-3.7,3.5-2.2,7.3-4,11.1-5.5-8,2.6-15.7,5.9-23,10ZM340.7,87.1c3.4.6,6.7,1.5,10,2.6,1.3-.5,2.6-.9,3.9-1.3-5.4-2.1-11.2-3.4-17-3.9.7.8,1.3,1.6,1.9,2.4.4,0,.8.2,1.3.2ZM264.6,90.3c1.5.5,3,1,4.4,1.6,6.2-1.8,12.7-2.9,19.1-3.3-13.9-7.3-30.9-8.6-45.5-2.5,7.4.5,14.8,1.8,21.9,4.2ZM372.6,98.8c.2,0,.3,0,.5.1-1.4-1.1-2.8-2.2-4.3-3.2-.7-.5-1.5-1-2.2-1.4-1.3.3-2.5.6-3.7.9,3,2.4,6.1,2.8,9.7,3.5ZM318.4,106.2c.1,0,.2-.1.3-.2-.3-.2-.5-.4-.8-.6.2.3.3.6.5.8ZM332.5,108.4c.2-.2.5-.4.7-.6-.3.2-.5.3-.8.4,0,0,0,0,0,.1ZM301.6,118.3c3.1-2.4,6.2-4.8,9.4-7-.9-1.7-1.9-3.4-2.9-5-.8-1.2-1.6-2.3-2.5-3.4-3.9.4-7.9,1-11.8,1.8-1.1.2-2.2.5-3.2.7,4.2,3.8,7.9,8.2,11.1,12.9ZM323.1,118.8c.5-.7,1-1.4,1.5-2.1.4-.6.8-1.1,1.3-1.7-.4-.7-.8-1.5-1.2-2.2-.9.6-1.8,1.1-2.7,1.7.4,1.4.8,2.8,1.1,4.2ZM213.5,127.6c11.1-13.3,25.7-23.6,41.6-30.5-8.9-2.1-18.1-2.4-27.2-1.8-9.2,8-14.7,20.1-14.3,32.4ZM391.7,129c-1.2-4.1-3.2-8.1-5.9-11.4,2.3,3.6,4.2,7.5,5.9,11.4ZM397.1,107.3c8.4,3.3,16,8.7,22.4,15.1,2.7,2.8,5.3,5.8,7.5,9-4.2-22.9-23.5-39.8-47.1-38.6,4.6,3.8,8.7,8.1,12.3,12.8,1.7.5,3.3,1.1,4.9,1.8ZM308.7,132.5c2-2.3,4.1-4.5,6.4-6.5-.1-2-.4-4-.9-5.9-2.8,2-5.5,4.1-8.1,6.2,1,2,1.9,4.1,2.6,6.2ZM275,135.6c2.6-.4,5.2-.6,7.8-.8,3.8-3.7,7.7-7.3,11.8-10.8-3.2-5.1-7.3-9.7-11.9-13.6-4.7,7.5-7.5,16.2-7.7,25.1ZM300.4,135.8c-.5-1.2-.9-2.5-1.5-3.7-.2.2-.3.3-.5.5-1,.8-1.9,1.7-2.8,2.6,1.6.2,3.2.4,4.8.6ZM337.6,122.3c.4,2.3.6,4.7.6,7.1,0,3.1-.3,6.2-.8,9.2,2-6.3,3.4-12.9,3.4-19.5-.3.1-.5.2-.8.4-.9.5-1.8.9-2.7,1.4,0,.4.2.9.3,1.3ZM255.7,138.8c.7.3,1.4.7,2.1,1.1,2.7-.9,5.4-1.8,8.2-2.5-.2-9.1,2-18.2,6-26.3-13.4,5.1-26.1,12.4-36.8,22,7.1.7,14.1,2.6,20.5,5.7ZM194,141.4c2.2-1.1,4.5-2,6.8-2.9,1.5-.6,3-1.1,4.5-1.6-2.4-13.7.3-28.5,8.7-39.8-5,1-9.9,2.3-14.7,3.8-11.5,10.9-14.5,27.2-5.4,40.6ZM326.6,144.7c2-5.9,3-12.2,2.5-18.4-3,5.2-4.7,11-5.3,17,1,.5,1.9,1,2.9,1.5ZM200.2,149.3c.1-.4.3-.7.5-1.1-.3.2-.7.3-1,.5.2.2.4.4.6.6ZM425.7,150.8c.6.3,1.2.6,1.8.9,0-.3,0-.7.1-1-5.7-13-14.9-24.8-27.4-31.9,1.2,2.5,2.2,5,3.1,7.6,2.1,6,3.4,12.2,3.9,18.5,6.4,1,12.6,2.9,18.4,5.8ZM341.8,155.1c14.3-6.3,29.8-10.1,45.4-11-4.2-13.2-15.7-24.3-27.4-31.3-3.4.7-6.8,1.6-10.1,2.7.7,13.4-3,26.8-9.1,38.7.4.3.7.6,1.1.9ZM312.7,160.3c1,0,1.9,0,2.9-.1-.2-1.2-.4-2.4-.5-3.5,0-.5-.1-.9-.2-1.4-.7.9-1.3,1.8-2.1,2.6,0,.8,0,1.6-.1,2.4ZM223.6,160.4c6.9-6.3,14.7-11.5,22.9-15.7-6.4-2.2-13.2-3.1-20-2.8-2.5,2.9-4.9,5.9-7.1,9.1l-.4.6c.6,1.3,1.2,2.6,1.8,3.9.9,1.7,1.8,3.3,2.7,4.9ZM368.4,160.6c5.9.3,11.9,1.2,17.3,3.5,2.1-3.5,4.3-7,3-11.1-13.7.7-27.3,3.8-40.1,9,0,.1.2.2.3.3,6.4-1.3,12.9-2,19.4-1.7ZM257.7,165.8c.7-1.1,1.5-2.3,2.2-3.4,1.5-2.2,3-4.4,4.6-6.5-2.3-2.3-4.8-4.3-7.5-6.1-7.4,3-14.5,7.1-20.9,11.9.3,0,.7,0,1,0,7.1,0,14.1,1.3,20.6,4.1ZM284.8,165.9c2.4-.9,4.8-1.6,7.3-2.3.4-.3.9-.5,1.3-.8.5-2.4,1.1-4.8,1.9-7.2,1.2-3.7,2.8-7.3,4.7-10.7-2.7-.5-5.4-.8-8.1-1-1.7-.1-3.4-.2-5.1-.1-2.2,2.2-4.3,4.5-6.3,6.8-.8.9-1.7,1.9-2.5,2.9,1.6,4.5,3.8,8.8,6.9,12.5ZM268.1,171.9c2.2-.4,4.6-.5,6.6-1.5-1.2-2.6-2.7-5.1-4.3-7.5-.8,1.1-1.6,2.2-2.3,3.3-.8,1.3-1.7,2.5-2.5,3.8.9.6,1.7,1.2,2.5,1.9ZM249.9,172.5c-3.6-1.1-7.2-1.7-10.9-1.8.7.2,1.3.3,2,.4,3,.6,5.9,1,8.9,1.3ZM301.4,173.6c.3-1,.5-2.1.8-3.1-.2,0-.5,0-.7.1,0,1,0,2,0,3ZM377.7,175.1c0,0,.1-.1.2-.2.9-1,1.8-2.1,2.6-3.2-4.8-1.6-9.8-2.2-14.8-2.2,4.1,1.6,8.1,3.5,12,5.6ZM153.4,177.2c7.9-13.1,19.5-23.8,32.6-31.6-7.4-11.4-8.7-26.5-2.2-38.6-26.9,11.8-53.3,42.2-30.4,70.2ZM388.5,181.8c.2-1.4.4-2.8.5-4.3-.2-.3-.5-.6-.7-.9,0,0,0,0-.1-.1-.2.3-.4.5-.6.8-.7.8-1.4,1.7-2.1,2.5,1,.7,2,1.3,2.9,2ZM258.2,183.9c.6-.8,1.2-1.5,1.9-2.2-.3,0-.6,0-.9,0-.3.7-.7,1.5-1,2.2ZM246.4,184.4c.6,0,1.2.2,1.7.4.4-1.1.9-2.2,1.3-3.3-2.8-.2-5.5-.6-8.2-1.1-.7-.1-1.5-.3-2.2-.4,1,1,2.1,2,3.2,3,.6.5,1.2,1,1.7,1.5.8,0,1.6,0,2.4,0ZM279.4,184.9c0-.4-.1-.7-.2-1.1-.3-1.6-.7-3.1-1.2-4.7-.2,0-.4.1-.6.2-.4.3-.9.5-1.3.8,1.2,1.5,2.3,3.2,3.3,4.8ZM269.4,186.1c-.1-.2-.3-.4-.4-.6-.2.2-.4.4-.6.5.3,0,.7,0,1,0ZM287.6,180.5c.5,2.1.8,4.1,1.1,6.2,1.6-.9,3.1-1.9,4.6-2.8,0-.1,0-.3,0-.4,0-.3-.1-.6-.2-.9-.4-.1-.8-.2-1.1-.4-1.6-.5-3.1-1.3-4.5-2.2,0,.2,0,.3.1.5ZM362.6,188.2c0,0,0,.1,0,.2,2.9-2,5.7-4.2,8.3-6.5,0,0,0,0,.1,0,0,0,0,0,0,0-4.1-2-8.3-3.8-12.5-5.4,1.8,3.8,3.2,7.7,4.1,11.8ZM310.2,195.6c.6-4,2.1-8,4.1-11.5.6-1.1,1.3-2.1,2-3.1-.9.8-1.9,1.5-2.8,2.3-2.9,2.6-5.7,5.3-8.3,8.2.3.7.6,1.4,1,2.1,0,.1.1.3.2.4,1.3.5,2.6,1.1,3.8,1.7ZM264.5,197.5c.6-.2,1.2-.4,1.8-.6,1.6-.6,3.2-1.2,4.8-1.8-3.1-.2-6.2-.2-9.3-.1-.2.3-.3.7-.4,1l.9.5c.7.4,1.5.7,2.2,1ZM345.4,197.9c1.8-.8,3.5-1.6,5.2-2.4,1.3-.6,2.5-1.3,3.7-2-1-7.6-4.2-14.8-8.7-21,0,0,0,0-.1,0-5,1.5-9.8,3.7-14.2,6.6,3.6,7,8.3,13.5,14.1,18.8ZM184,197.9c.6-2.7,1.5-5.4,2.7-7.9.3-11.4,3.5-22.6,8.8-32.7-.7-.7-1.4-1.4-2.1-2.1-.7-.8-1.4-1.5-2.1-2.3-12.9,7.4-24.1,18-31.5,31,7.1,6.1,15.4,10.8,24.1,14.1ZM400.8,192.8c1.6,1.8,3.1,3.6,4.4,5.6.3.4.5.8.8,1.2,8.1-11.9,16.1-24.3,19.6-38.4-5.4-3.7-11.7-5.7-18-7,.3,13.3-5.1,25.5-7,38.5,0,0,0,0,.1.1ZM210.3,202c7.5-5.6,16-9.4,25-12,0-.1.2-.3.3-.4,0-.1.2-.2.3-.3-4.9-4.3-9.3-9.1-13.2-14.3-.1,0-.3-.1-.4-.2-5.9,6.9-10.7,14.8-13.8,23.4.3.7.6,1.4,1,2.1.3.6.6,1.2,1,1.8ZM197.9,202.1c.3-1.2.6-2.4,1-3.6-1-2.5-1.7-5-2.4-7.6-1.9,3.1-.3,7.3-.2,10.8.5.1,1.1.3,1.6.4ZM241.9,203c.5,0,1.1-.2,1.6-.3,0-.6.2-1.2.3-1.8.2-1.3.5-2.6.7-4,0,0,0,0-.1,0-.8.2-1.7.4-2.5.6-.3,1.8-.2,3.6,0,5.4ZM325.3,204.3c3.7-.8,7.3-1.8,10.9-2.9-2-2.1-3.8-4.3-5.6-6.6-2.3-3-4.3-6.3-6.1-9.6-3.5,4.1-5.6,9.5-5.6,14.9,2.2,1.3,4.4,2.7,6.4,4.2ZM223.1,204.5c2.4,0,4.8-.1,7.3-.3.9,0,1.8-.1,2.7-.2,0-.6-.1-1.1-.2-1.7,0-.7,0-1.4,0-2.1-2.7,1-5.3,2.1-7.8,3.3-.6.3-1.3.7-1.9,1ZM354.4,204.6c0-.3,0-.7.1-1-.3.2-.6.3-1,.5.3.2.6.3.8.5ZM303.6,206.4c-1.3-1.7-2.5-3.5-3.5-5.3-.4-.1-.7-.3-1.1-.4-1.2,1.8-2.4,3.6-3.6,5.3.9,0,1.8.2,2.7.2,1.9.1,3.7.2,5.6.2ZM411.8,207c13.7-6.3,28.8-22.3,20.9-38.2-4.5,13.9-12.7,26.2-20.9,38.2ZM369.5,211c6.2-4.2,15.7-11.7,17.3-19.2-1.7-1.4-3.5-2.7-5.3-3.9-.7-.5-1.5-1-2.2-1.4-3.7,3.5-7.6,6.7-11.8,9.5-1.2.9-2.5,1.7-3.7,2.5,0,1.3,0,2.7-.1,4-.1,2.1-.4,4.3-.8,6.4.8.3,1.6.6,2.5.9,1.4.5,2.8.9,4.3,1.3ZM396.8,205.7c-.8,2.3-1.8,4.5-2.8,6.7,1.3-.2,2.6-.4,3.8-.7,0,0,0,0,0,0,.8-1.3,1.7-2.5,2.5-3.8-.8-1.6-1.7-3.2-2.8-4.6-.3.8-.6,1.6-.9,2.4ZM347.9,218.3c.8,0,1.6-.1,2.4-.2.7-1.4,1.3-2.9,1.8-4.4-.5-.3-1.1-.6-1.6-.9-2.4-1.4-4.6-2.9-6.8-4.6-3.2,1.2-6.5,2.3-9.8,3.2.9.8,1.8,1.7,2.7,2.6,1.4,1.3,2.7,2.7,3.9,4.2,2.4.3,4.8.3,7.2.1ZM262.9,223.4c5.5-3.2,10.6-7,15.1-11.4-4.8-1.3-9.6-2.9-14.1-4.9-1.3.4-2.6.8-3.8,1.1-1.1,5.3.2,10.4,2.8,15.2ZM254.8,227.5s0,0,0,0c0,0,0,0,0,0,0,0,0,0,0,0ZM355.4,227.7c1.2-.7,2.5-1.4,3.7-2.2-.9.3-1.9.5-2.8.7-.3.5-.6,1-.9,1.5ZM208.6,227.7c-.6-1.2-1.2-2.3-1.8-3.5-.5-1.1-1.1-2.3-1.6-3.4.2,1.8.4,3.6.7,5.4.8.5,1.6.9,2.5,1.4,0,0,0,0,.1,0ZM240.1,231.8c.6,0,1.3-.2,1.9-.3.4-.5.8-1.1,1.1-1.6-3.2-5.4-5.9-11.1-7.9-17-3.5.3-7,.6-10.5.6-2.1,0-4.3,0-6.4,0,6.2,7.3,13.6,13.4,21.8,18.3ZM224.9,232.3c-2.3-1.8-4.6-3.8-6.8-5.8,1.1,1.8,2.2,3.6,3.3,5.4,1.1.2,2.3.3,3.4.5ZM270.6,234.2c1-1.6,2-3.3,2.8-5,.5-.9.9-1.9,1.3-2.8-2.2,1.6-4.6,3.2-7,4.6.6.8,1.2,1.5,1.8,2.2.3.4.7.7,1,1.1ZM338.7,234.3c.6-.6,1.2-1.2,1.7-1.8,0,0,0-.1-.1-.2-1.3-2-2.8-3.8-4.2-5.7-2.3-.4-4.5-1-6.7-1.7,2.8,3.4,6,6.6,9.4,9.4ZM264.7,242.1c.2-.2.4-.4.5-.6-1.3-1.4-2.6-2.8-3.9-4.3-.6-.7-1.1-1.4-1.6-2.1-.5.2-.9.4-1.4.6,1.3,2.1,2.7,4,4.3,5.8.7.2,1.3.4,2,.6ZM356.1,242.7c6.7-4.6,14.1-9.5,18.1-16.8-1.6,1.2-3.1,2.4-4.8,3.5-4.9,3.4-10,6.4-15.2,9.1.7,1.4,1.3,2.8,1.9,4.2ZM230.4,243.2c.7-.6,1.4-1.1,2.1-1.7-1.2,0-2.4,0-3.6,0,.2.2.3.4.5.6.3.4.7.7,1,1.1ZM299.2,245.3c5-.4,10-1.1,15-2.1,5.5-1.1,10.8-2.6,16.1-4.4-6.9-6.3-12.9-13.8-16.7-22.3-.6-.4-1.1-.9-1.7-1.4-7.3.5-14.7.2-22-.8-1.1,2.5-2.1,5-2.9,7.6,0,7.8-3.7,15.2-3.1,23,4.8,1.1,10.2.4,15.2.3ZM385.4,246.3c11.3-3.5,20-14.6,18.4-26.8-.1,0-.2,0-.4,0-6,8.9-12,17.8-18.1,26.7ZM373.2,248c6.1-8.8,12-17.4,18-26.3-.8,0-1.5.1-2.3.2-2.6,4.3-5.6,8.4-8.9,12.1-2.8,4.8-5.9,9.5-9.3,13.9h0c.8,0,1.7,0,2.5,0ZM221.8,248.6c.3-.2.6-.3.9-.5-.2-.2-.4-.5-.6-.7-2.1-2.4-4.1-4.9-6-7.5-.9-.2-1.9-.5-2.8-.8,1.2,1.5,2.4,3,3.7,4.5,1.5,1.7,3.1,3.4,4.7,5ZM328,253.6c5.6-.9,11.1-2.5,16.3-4.7-1.7-.9-3.3-2-4.9-3-3.5,2.9-7.4,5.5-11.3,7.8ZM188.8,255c-2-9.7-1-20,2.8-29.1-4.6-5.1-7.5-11.7-8.1-18.5-9.9-3.5-19.4-8.4-27.6-15.1-11.1,27.2,2.8,58,32.9,62.7ZM243.3,255.1c4.8-1.1,9.3-3.2,13.3-5.9,0,0,0,0,0,0-4.5-1.5-9-3.3-13.2-5.4-2.1,2.1-4.3,4.1-6.6,5.9.6.5,1.2,1.1,1.7,1.6,1.6,1.4,3.2,2.7,4.8,3.9ZM198.1,255.5c4.1-.2,8.2-.9,12.1-2.1-5.6-5.5-9.4-12.5-11.8-20-2.1,7.2-2.2,14.9-.3,22.1ZM259.2,265.3c.8-.8,1.5-1.6,2.2-2.4,1.2-1.4,2.4-2.9,3.5-4.4-.8-.8-1.6-1.7-2.4-2.5-3.1,2.2-6.5,4.1-10,5.6,2.2,1.3,4.4,2.6,6.7,3.7ZM281.1,273.2c-3.4-2.6-6.7-5.4-9.8-8.3-.2.2-.3.5-.5.7-.9,1.2-1.9,2.4-2.9,3.6,1,.4,2.1.8,3.1,1.2,3.3,1.1,6.7,2.1,10.1,2.8ZM300.3,275.1c18.4-.3,36.6-7.2,50.5-19.3-14.5,6.8-31,9.5-46.8,6.5-5.6,1-11.3,1.3-16.9.6.2.5.3,1.1.5,1.6.4,1.1.8,2.2,1.2,3.2,1.1.8,2.2,1.6,3.3,2.4,2.6,1.8,5.3,3.4,8.1,4.9ZM230.1,279.5c4.8-.4,9.5-1.6,13.9-3.6-9.2-4.2-16.3-11.6-25.2-16-3.1,1.2-6.3,2.2-9.5,3-2.5.6-5.1,1-7.6,1.3,5.6,10.1,17,16.3,28.5,15.3ZM361.5,262.5c.6,4.7.7,9.6.2,14.4-.4,3.1-1.1,6.1-2.1,9,43.4-6.1,72.8-43.7,76-86.2-4.7,5.8-10.7,10.6-17.2,14.1-1.9,1-3.9,2-5.9,2.8,4.4,28.1-23.6,45.2-48.9,39.5-.9.9-1.8,1.8-2.7,2.7.2,1.2.4,2.5.6,3.7ZM349.4,286.9c3.2-6.5,4.1-13.9,3.4-21.1-10.6,8.2-23,13.8-36.1,16.5,10.5,3.5,21.7,5.1,32.7,4.6ZM330.3,300.2c4.2-.3,8.4-1.7,11.9-4.3-14.4-.4-28.5-4.1-41.4-10.4,0,.4,0,.8,0,1.1,7.5,8.2,18.2,14.3,29.6,13.6ZM325.3,309.1c-13.1-1.1-24.9-8.7-33.1-18.6-13.1-.8-25.8-5-38-9.8-22,14.3-51.9,9-62.5-16.4-39.3-2.8-59.3-44.3-42.8-78.7-17.6-17.8-16.9-44.5-.9-63.1,8.8-10.8,20.8-18.6,33.3-24.4,5.2-3,11.8-3.4,16-7.7,34.2-27.6,91.9-40.4,130.5-15.1,4.9-.3,9.9-.1,14.8.6,9.1,1.3,17.8,4.5,25.7,8.9,30.3-6.2,59.3,10.7,66.7,41.2,2,7.6,2.5,15.5,1.9,23.3,1.1,2.8,2.1,5.6,3.1,8.5,19.9,60.3-18.8,133.2-85.2,137.8-6.3,9.7-18.1,14.8-29.4,13.6"/>
</svg>
