<svg xmlns="http://www.w3.org/2000/svg" xmlns:xlink="http://www.w3.org/1999/xlink" width="567" zoomAndPan="magnify" viewBox="0 0 425.25 425.249985" height="567" preserveAspectRatio="xMidYMid meet" version="1.0"><defs><filter x="0%" y="0%" width="100%" height="100%" id="32dd4549f6"><feColorMatrix values="0 0 0 0 1 0 0 0 0 1 0 0 0 0 1 0 0 0 1 0" color-interpolation-filters="sRGB"/></filter><g/><clipPath id="ba47a880c3"><path d="M 0 0 L 424.5 0 L 424.5 424.5 L 0 424.5 Z M 0 0 " clip-rule="nonzero"/></clipPath><mask id="43166f6e1b"><g filter="url(#32dd4549f6)"><rect x="-42.525" width="510.3" fill="#000000" y="-42.524999" height="510.299982" fill-opacity="0.77"/></g></mask><clipPath id="17721a990c"><path d="M 0.980469 0.382812 L 276.253906 0.382812 L 276.253906 354.71875 L 0.980469 354.71875 Z M 0.980469 0.382812 " clip-rule="nonzero"/></clipPath><clipPath id="60629064c8"><rect x="0" width="277" y="0" height="355"/></clipPath><clipPath id="ad0b1a4ee0"><rect x="0" width="277" y="0" height="355"/></clipPath><clipPath id="b7f020982f"><path d="M 149.753906 134.507812 L 381.6875 134.507812 L 381.6875 320.179688 L 149.753906 320.179688 Z M 149.753906 134.507812 " clip-rule="nonzero"/></clipPath></defs><g clip-path="url(#ba47a880c3)"><path fill="#ffffff" d="M 0 0 L 424.5 0 L 424.5 424.5 L 0 424.5 Z M 0 0 " fill-opacity="1" fill-rule="nonzero"/><path fill="#fdf3ea" d="M 0 0 L 424.5 0 L 424.5 424.5 L 0 424.5 Z M 0 0 " fill-opacity="1" fill-rule="nonzero"/></g><g mask="url(#43166f6e1b)"><g transform="matrix(1, 0, 0, 1, 11, 31)"><g clip-path="url(#ad0b1a4ee0)"><g clip-path="url(#17721a990c)"><g transform="matrix(1, 0, 0, 1, 0.000000000000001776, 0.000000000000003553)"><g clip-path="url(#60629064c8)"><g fill="#468157" fill-opacity="1"><g transform="translate(15.931604, 247.252777)"><g><path d="M 64.25 -190.046875 L 232.640625 -152.59375 L 222.25 -105.890625 L 116.40625 -129.4375 L 110.421875 -102.5625 L 200.984375 -82.421875 L 191.046875 -37.703125 L 100.484375 -57.84375 L 93.875 -28.140625 L 201.703125 -4.15625 L 191.3125 42.546875 L 20.9375 4.65625 Z M 64.25 -190.046875 "/></g></g></g></g></g></g></g></g></g><g clip-path="url(#b7f020982f)"><path fill="#ffb5b5" d="M 250.035156 143.421875 C 257.648438 144.34375 265.027344 147.121094 271.457031 151.285156 C 275.183594 149.207031 279.175781 147.597656 283.285156 146.46875 C 268.445312 139.949219 251.335938 140.183594 235.816406 144.039062 C 240.488281 143.109375 245.292969 142.894531 250.035156 143.421875 Z M 287.261719 152.433594 C 289 152.355469 290.742188 152.332031 292.480469 152.371094 C 292.441406 152.335938 292.402344 152.300781 292.363281 152.265625 C 292.136719 152.074219 291.90625 151.878906 291.675781 151.691406 C 290.429688 151.84375 289.191406 152.039062 287.957031 152.28125 C 287.726562 152.328125 287.492188 152.378906 287.261719 152.433594 Z M 211.007812 153.699219 C 212.679688 153.445312 214.359375 153.230469 216.042969 153.066406 C 217.289062 152.085938 218.582031 151.175781 219.914062 150.328125 C 222.523438 148.660156 225.351562 147.304688 228.25 146.210938 C 222.285156 148.160156 216.472656 150.609375 211.007812 153.699219 Z M 303.417969 153.496094 C 305.949219 153.980469 308.449219 154.640625 310.886719 155.472656 C 311.847656 155.117188 312.8125 154.78125 313.785156 154.460938 C 309.703125 152.890625 305.398438 151.917969 301.046875 151.515625 C 301.539062 152.105469 302.015625 152.707031 302.46875 153.324219 C 302.785156 153.378906 303.101562 153.4375 303.417969 153.496094 Z M 246.300781 155.964844 C 247.417969 156.332031 248.527344 156.738281 249.617188 157.175781 C 254.289062 155.839844 259.105469 154.96875 263.957031 154.707031 C 253.523438 149.199219 240.785156 148.230469 229.84375 152.828125 C 235.429688 153.210938 240.960938 154.214844 246.300781 155.964844 Z M 327.355469 162.296875 C 327.480469 162.328125 327.601562 162.363281 327.726562 162.398438 C 326.679688 161.570312 325.609375 160.78125 324.511719 160.027344 C 323.964844 159.660156 323.410156 159.308594 322.855469 158.960938 C 321.914062 159.167969 320.976562 159.394531 320.046875 159.636719 C 322.320312 161.445312 324.609375 161.707031 327.355469 162.296875 Z M 286.703125 167.863281 C 286.78125 167.8125 286.859375 167.761719 286.941406 167.710938 C 286.75 167.550781 286.558594 167.394531 286.363281 167.238281 C 286.476562 167.445312 286.589844 167.65625 286.703125 167.863281 Z M 297.21875 169.5 C 297.394531 169.347656 297.574219 169.203125 297.75 169.054688 C 297.550781 169.167969 297.351562 169.28125 297.15625 169.390625 C 297.175781 169.425781 297.199219 169.464844 297.21875 169.5 Z M 274.042969 176.9375 C 276.34375 175.117188 278.695312 173.355469 281.089844 171.664062 C 280.425781 170.371094 279.6875 169.125 278.886719 167.910156 C 278.289062 167.039062 277.660156 166.191406 277.003906 165.363281 C 274.042969 165.691406 271.097656 166.148438 268.175781 166.730469 C 267.367188 166.902344 266.558594 167.078125 265.753906 167.265625 C 268.902344 170.136719 271.691406 173.386719 274.042969 176.9375 Z M 290.214844 177.335938 C 290.574219 176.800781 290.941406 176.273438 291.324219 175.757812 C 291.636719 175.328125 291.960938 174.90625 292.296875 174.496094 C 292.007812 173.945312 291.699219 173.402344 291.375 172.875 C 290.703125 173.296875 290.039062 173.726562 289.375 174.164062 C 289.710938 175.210938 289.988281 176.269531 290.214844 177.335938 Z M 207.96875 183.871094 C 216.316406 173.878906 227.25 166.179688 239.136719 160.96875 C 232.457031 159.425781 225.542969 159.140625 218.71875 159.605469 C 211.789062 165.628906 207.660156 174.664062 207.96875 183.871094 Z M 341.652344 184.992188 C 340.777344 181.882812 339.289062 178.9375 337.246094 176.429688 C 338.96875 179.140625 340.414062 182.03125 341.652344 184.992188 Z M 345.664062 168.65625 C 351.976562 171.160156 357.679688 175.167969 362.433594 179.992188 C 364.492188 182.078125 366.378906 184.347656 368.082031 186.734375 C 364.96875 169.523438 350.449219 156.890625 332.730469 157.757812 C 336.164062 160.585938 339.265625 163.808594 341.964844 167.34375 C 343.210938 167.734375 344.445312 168.175781 345.664062 168.65625 Z M 279.40625 187.550781 C 280.902344 185.839844 282.5 184.210938 284.171875 182.664062 C 284.0625 181.175781 283.863281 179.683594 283.519531 178.222656 C 281.453125 179.726562 279.421875 181.273438 277.429688 182.867188 C 278.167969 184.394531 278.828125 185.957031 279.40625 187.550781 Z M 254.113281 189.90625 C 256.0625 189.621094 258.03125 189.429688 260 189.332031 C 262.835938 186.527344 265.785156 183.835938 268.8125 181.246094 C 266.378906 177.417969 263.332031 173.992188 259.867188 171.070312 C 256.324219 176.683594 254.207031 183.253906 254.113281 189.90625 Z M 273.15625 190.078125 C 272.816406 189.152344 272.453125 188.238281 272.0625 187.335938 C 271.929688 187.453125 271.800781 187.566406 271.667969 187.679688 C 270.953125 188.3125 270.242188 188.953125 269.535156 189.597656 C 270.746094 189.722656 271.953125 189.882812 273.15625 190.078125 Z M 301.082031 179.945312 C 301.414062 181.699219 301.523438 183.496094 301.542969 185.277344 C 301.566406 187.597656 301.351562 189.917969 300.949219 192.207031 C 302.441406 187.488281 303.46875 182.558594 303.484375 177.589844 C 303.292969 177.679688 303.101562 177.773438 302.910156 177.867188 C 302.230469 178.214844 301.550781 178.574219 300.882812 178.941406 C 300.953125 179.273438 301.019531 179.609375 301.082031 179.945312 Z M 239.679688 192.277344 C 240.207031 192.535156 240.730469 192.804688 241.246094 193.085938 C 243.257812 192.378906 245.300781 191.765625 247.367188 191.246094 C 247.199219 184.4375 248.878906 177.589844 251.902344 171.503906 C 241.855469 175.359375 232.363281 180.808594 224.335938 188.007812 C 229.648438 188.515625 234.875 189.929688 239.679688 192.277344 Z M 193.335938 194.257812 C 195.011719 193.460938 196.714844 192.730469 198.445312 192.058594 C 199.566406 191.621094 200.703125 191.210938 201.851562 190.832031 C 200.058594 180.53125 202.046875 169.457031 208.386719 160.996094 C 204.660156 161.710938 200.992188 162.6875 197.375 163.828125 C 188.785156 171.996094 186.476562 184.222656 193.335938 194.257812 Z M 292.832031 196.730469 C 294.34375 192.308594 295.105469 187.585938 294.683594 182.914062 C 292.421875 186.789062 291.160156 191.191406 290.6875 195.636719 C 291.410156 195.988281 292.125 196.351562 292.832031 196.730469 Z M 198.015625 200.1875 C 198.125 199.917969 198.238281 199.648438 198.355469 199.382812 C 198.09375 199.496094 197.835938 199.609375 197.578125 199.722656 C 197.722656 199.878906 197.867188 200.03125 198.015625 200.1875 Z M 367.164062 201.28125 C 367.613281 201.507812 368.054688 201.742188 368.496094 201.988281 C 368.527344 201.738281 368.558594 201.492188 368.589844 201.246094 C 364.3125 191.496094 357.425781 182.617188 348.074219 177.3125 C 348.964844 179.171875 349.75 181.085938 350.425781 183.042969 C 351.980469 187.546875 352.941406 192.21875 353.375 196.949219 C 358.152344 197.726562 362.84375 199.113281 367.164062 201.28125 Z M 304.191406 204.535156 C 314.9375 199.832031 326.503906 196.925781 338.226562 196.25 C 335.085938 186.375 326.433594 178.039062 317.703125 172.78125 C 315.136719 173.28125 312.621094 173.980469 310.148438 174.820312 C 310.6875 184.867188 307.925781 194.929688 303.355469 203.824219 C 303.636719 204.058594 303.914062 204.296875 304.191406 204.535156 Z M 282.371094 208.433594 C 283.089844 208.398438 283.808594 208.367188 284.527344 208.347656 C 284.371094 207.464844 284.234375 206.578125 284.117188 205.6875 C 284.074219 205.347656 284.03125 205.007812 283.996094 204.664062 C 283.5 205.332031 282.984375 205.980469 282.449219 206.613281 C 282.433594 207.222656 282.40625 207.828125 282.371094 208.433594 Z M 215.597656 208.503906 C 220.765625 203.8125 226.601562 199.84375 232.808594 196.695312 C 228.007812 195.019531 222.898438 194.359375 217.824219 194.574219 C 215.929688 196.75 214.164062 199.03125 212.53125 201.410156 C 212.425781 201.570312 212.320312 201.730469 212.214844 201.890625 C 212.644531 202.875 213.09375 203.847656 213.570312 204.8125 C 214.210938 206.0625 214.886719 207.292969 215.597656 208.503906 Z M 324.171875 208.636719 C 328.597656 208.828125 333.085938 209.53125 337.175781 211.292969 C 338.738281 208.675781 340.402344 206.070312 339.449219 202.941406 C 329.152344 203.433594 318.953125 205.78125 309.410156 209.660156 C 309.480469 209.738281 309.546875 209.8125 309.617188 209.890625 C 314.390625 208.882812 319.292969 208.421875 324.171875 208.636719 Z M 241.160156 212.523438 C 241.703125 211.664062 242.257812 210.808594 242.816406 209.964844 C 243.914062 208.3125 245.054688 206.691406 246.234375 205.101562 C 244.53125 203.394531 242.628906 201.882812 240.613281 200.550781 C 235.03125 202.816406 229.761719 205.847656 224.96875 209.488281 C 225.21875 209.484375 225.46875 209.484375 225.722656 209.484375 C 231.011719 209.484375 236.28125 210.453125 241.160156 212.523438 Z M 261.464844 212.617188 C 263.253906 211.957031 265.074219 211.382812 266.917969 210.886719 C 267.246094 210.691406 267.570312 210.492188 267.894531 210.292969 C 268.246094 208.46875 268.714844 206.671875 269.296875 204.902344 C 270.210938 202.105469 271.414062 199.425781 272.839844 196.855469 C 270.820312 196.511719 268.792969 196.265625 266.75 196.117188 C 265.464844 196.039062 264.179688 196.003906 262.894531 196.007812 C 261.28125 197.660156 259.707031 199.351562 258.171875 201.082031 C 257.546875 201.792969 256.929688 202.511719 256.320312 203.234375 C 257.535156 206.605469 259.183594 209.839844 261.464844 212.617188 Z M 248.964844 217.164062 C 250.613281 216.832031 252.417969 216.785156 253.925781 216.015625 C 253.003906 214.066406 251.925781 212.1875 250.695312 210.410156 C 250.105469 211.230469 249.523438 212.054688 248.957031 212.890625 C 248.320312 213.84375 247.695312 214.800781 247.085938 215.769531 C 247.726562 216.210938 248.355469 216.679688 248.964844 217.164062 Z M 235.292969 217.566406 C 232.628906 216.777344 229.863281 216.328125 227.089844 216.253906 C 227.589844 216.371094 228.09375 216.484375 228.601562 216.589844 C 230.816406 217.027344 233.046875 217.355469 235.292969 217.566406 Z M 273.894531 218.441406 C 274.101562 217.667969 274.296875 216.890625 274.476562 216.109375 C 274.296875 216.140625 274.117188 216.171875 273.933594 216.207031 C 273.902344 216.953125 273.886719 217.695312 273.894531 218.441406 Z M 331.175781 219.507812 C 331.222656 219.457031 331.269531 219.402344 331.316406 219.351562 C 331.988281 218.578125 332.640625 217.789062 333.273438 216.984375 C 329.710938 215.8125 325.953125 215.332031 322.207031 215.332031 C 325.269531 216.554688 328.269531 217.945312 331.175781 219.507812 Z M 162.914062 221.097656 C 168.867188 211.289062 177.511719 203.234375 187.359375 197.417969 C 181.824219 188.859375 180.804688 177.515625 185.695312 168.433594 C 165.484375 177.265625 145.6875 200.113281 162.914062 221.097656 Z M 339.265625 224.539062 C 339.40625 223.472656 339.535156 222.402344 339.640625 221.332031 C 339.472656 221.101562 339.296875 220.878906 339.117188 220.65625 C 339.089844 220.628906 339.0625 220.597656 339.035156 220.566406 C 338.886719 220.753906 338.742188 220.945312 338.597656 221.132812 C 338.097656 221.769531 337.582031 222.398438 337.058594 223.015625 C 337.804688 223.507812 338.539062 224.015625 339.265625 224.539062 Z M 241.539062 226.144531 C 241.992188 225.574219 242.457031 225.023438 242.941406 224.488281 C 242.71875 224.496094 242.496094 224.503906 242.273438 224.507812 C 242.023438 225.050781 241.78125 225.597656 241.539062 226.144531 Z M 232.695312 226.515625 C 233.128906 226.550781 233.566406 226.660156 233.992188 226.796875 C 234.316406 225.957031 234.652344 225.125 235 224.296875 C 232.929688 224.121094 230.867188 223.851562 228.828125 223.488281 C 228.277344 223.390625 227.734375 223.285156 227.1875 223.175781 C 227.964844 223.933594 228.757812 224.671875 229.570312 225.394531 C 230 225.769531 230.433594 226.140625 230.875 226.507812 C 231.480469 226.453125 232.082031 226.46875 232.695312 226.515625 Z M 257.410156 226.871094 C 257.355469 226.59375 257.304688 226.316406 257.25 226.039062 C 256.996094 224.855469 256.710938 223.6875 256.378906 222.527344 C 256.222656 222.566406 256.066406 222.609375 255.910156 222.648438 C 255.585938 222.839844 255.265625 223.035156 254.949219 223.234375 C 255.839844 224.394531 256.65625 225.617188 257.410156 226.871094 Z M 249.898438 227.753906 C 249.792969 227.609375 249.683594 227.46875 249.578125 227.328125 C 249.4375 227.460938 249.300781 227.59375 249.164062 227.726562 C 249.410156 227.734375 249.65625 227.742188 249.898438 227.753906 Z M 263.597656 223.546875 C 263.949219 225.085938 264.234375 226.632812 264.457031 228.1875 C 265.632812 227.503906 266.792969 226.796875 267.9375 226.058594 C 267.917969 225.957031 267.894531 225.855469 267.875 225.753906 C 267.832031 225.539062 267.789062 225.320312 267.75 225.105469 C 267.460938 225.015625 267.179688 224.921875 266.894531 224.820312 C 265.71875 224.414062 264.59375 223.839844 263.519531 223.207031 C 263.546875 223.320312 263.574219 223.433594 263.597656 223.546875 Z M 319.8125 229.320312 C 319.820312 229.367188 319.832031 229.417969 319.84375 229.464844 C 322.011719 227.945312 324.097656 226.3125 326.097656 224.574219 C 326.125 224.550781 326.148438 224.527344 326.175781 224.5 C 326.164062 224.496094 326.152344 224.488281 326.140625 224.484375 C 323.082031 222.96875 319.941406 221.636719 316.738281 220.460938 C 318.105469 223.28125 319.136719 226.261719 319.8125 229.320312 Z M 280.519531 234.933594 C 280.960938 231.898438 282.070312 228.964844 283.578125 226.304688 C 284.035156 225.492188 284.546875 224.71875 285.101562 223.976562 C 284.398438 224.550781 283.707031 225.136719 283.019531 225.734375 C 280.84375 227.664062 278.765625 229.707031 276.796875 231.851562 C 277.023438 232.375 277.265625 232.894531 277.515625 233.410156 C 277.566406 233.503906 277.613281 233.601562 277.664062 233.695312 C 278.625 234.089844 279.578125 234.503906 280.519531 234.933594 Z M 246.210938 236.351562 C 246.664062 236.203125 247.117188 236.054688 247.570312 235.898438 C 248.773438 235.476562 249.96875 235.035156 251.152344 234.570312 C 248.835938 234.445312 246.515625 234.40625 244.199219 234.46875 C 244.082031 234.710938 243.972656 234.957031 243.867188 235.203125 C 244.101562 235.324219 244.335938 235.445312 244.570312 235.566406 C 245.113281 235.835938 245.660156 236.097656 246.210938 236.351562 Z M 306.949219 236.609375 C 308.269531 236.035156 309.574219 235.429688 310.867188 234.789062 C 311.8125 234.308594 312.746094 233.8125 313.667969 233.296875 C 312.929688 227.59375 310.527344 222.1875 307.144531 217.5625 C 307.109375 217.554688 307.074219 217.542969 307.035156 217.535156 C 303.273438 218.667969 299.667969 220.332031 296.386719 222.5 C 299.070312 227.761719 302.59375 232.605469 306.949219 236.609375 Z M 185.859375 236.667969 C 186.273438 234.628906 186.984375 232.640625 187.882812 230.757812 C 188.078125 222.1875 190.519531 213.777344 194.480469 206.199219 C 193.953125 205.683594 193.433594 205.160156 192.929688 204.621094 C 192.398438 204.058594 191.878906 203.480469 191.371094 202.890625 C 181.722656 208.460938 173.28125 216.382812 167.78125 226.125 C 173.089844 230.722656 179.308594 234.191406 185.859375 236.667969 Z M 348.492188 232.792969 C 349.675781 234.125 350.789062 235.511719 351.792969 236.984375 C 352 237.285156 352.199219 237.585938 352.394531 237.894531 C 358.480469 228.9375 364.433594 219.667969 367.109375 209.0625 C 363.09375 206.324219 358.367188 204.800781 353.632812 203.84375 C 353.851562 213.804688 349.804688 222.992188 348.402344 232.691406 C 348.433594 232.722656 348.460938 232.757812 348.492188 232.792969 Z M 205.628906 239.710938 C 211.226562 235.539062 217.664062 232.636719 224.34375 230.679688 C 224.410156 230.574219 224.480469 230.472656 224.554688 230.367188 C 224.617188 230.28125 224.679688 230.191406 224.742188 230.105469 C 221.097656 226.855469 217.78125 223.25 214.820312 219.371094 C 214.726562 219.332031 214.628906 219.292969 214.535156 219.253906 C 210.09375 224.4375 206.476562 230.355469 204.1875 236.800781 C 204.417969 237.324219 204.660156 237.84375 204.910156 238.359375 C 205.144531 238.816406 205.382812 239.265625 205.628906 239.710938 Z M 196.296875 239.757812 C 196.511719 238.859375 196.75 237.96875 197.011719 237.085938 C 196.296875 235.214844 195.703125 233.300781 195.234375 231.359375 C 193.800781 233.699219 194.996094 236.859375 195.09375 239.480469 C 195.496094 239.574219 195.894531 239.667969 196.296875 239.757812 Z M 229.3125 240.429688 C 229.707031 240.367188 230.101562 240.304688 230.5 240.238281 C 230.5625 239.789062 230.628906 239.335938 230.699219 238.890625 C 230.859375 237.894531 231.046875 236.90625 231.257812 235.921875 C 231.230469 235.929688 231.203125 235.933594 231.175781 235.941406 C 230.550781 236.070312 229.925781 236.210938 229.304688 236.359375 C 229.058594 237.699219 229.136719 239.082031 229.3125 240.429688 Z M 291.835938 241.433594 C 294.59375 240.839844 297.320312 240.109375 300.003906 239.246094 C 298.515625 237.683594 297.125 236.027344 295.820312 234.316406 C 294.089844 232.054688 292.574219 229.628906 291.214844 227.125 C 288.601562 230.226562 287.050781 234.226562 287 238.292969 C 288.65625 239.265625 290.269531 240.316406 291.835938 241.433594 Z M 215.171875 241.617188 C 216.984375 241.597656 218.800781 241.53125 220.609375 241.417969 C 221.28125 241.367188 221.953125 241.316406 222.621094 241.253906 C 222.566406 240.828125 222.523438 240.398438 222.488281 239.96875 C 222.449219 239.449219 222.425781 238.921875 222.421875 238.390625 C 220.433594 239.117188 218.484375 239.9375 216.585938 240.871094 C 216.109375 241.113281 215.640625 241.363281 215.171875 241.617188 Z M 313.664062 241.632812 C 313.695312 241.386719 313.726562 241.136719 313.757812 240.886719 C 313.515625 241.007812 313.273438 241.128906 313.03125 241.246094 C 313.242188 241.378906 313.453125 241.507812 313.664062 241.632812 Z M 275.597656 243.039062 C 274.632812 241.773438 273.75 240.441406 272.941406 239.066406 C 272.667969 238.964844 272.390625 238.863281 272.117188 238.761719 C 271.25 240.109375 270.335938 241.429688 269.382812 242.714844 C 270.054688 242.78125 270.730469 242.839844 271.40625 242.890625 C 272.804688 242.976562 274.199219 243.027344 275.597656 243.039062 Z M 356.75 243.449219 C 367.03125 238.691406 378.371094 226.730469 372.441406 214.808594 C 369.074219 225.261719 362.898438 234.457031 356.75 243.449219 Z M 325.015625 246.441406 C 329.648438 243.277344 336.820312 237.679688 337.953125 232.023438 C 336.675781 230.984375 335.355469 230.003906 334 229.070312 C 333.449219 228.703125 332.894531 228.34375 332.335938 227.992188 C 329.582031 230.601562 326.605469 232.980469 323.488281 235.132812 C 322.566406 235.773438 321.628906 236.390625 320.679688 236.988281 C 320.691406 237.996094 320.664062 239.003906 320.597656 240.007812 C 320.488281 241.613281 320.28125 243.207031 319.972656 244.78125 C 320.585938 245.027344 321.203125 245.257812 321.828125 245.480469 C 322.882812 245.832031 323.945312 246.152344 325.015625 246.441406 Z M 345.503906 242.453125 C 344.867188 244.160156 344.15625 245.835938 343.382812 247.484375 C 344.34375 247.347656 345.300781 247.1875 346.253906 246.996094 C 346.277344 246.992188 346.296875 246.988281 346.316406 246.984375 C 346.949219 246.039062 347.582031 245.089844 348.214844 244.140625 C 347.589844 242.945312 346.914062 241.773438 346.148438 240.660156 C 345.941406 241.261719 345.726562 241.859375 345.503906 242.453125 Z M 308.828125 251.960938 C 309.433594 251.914062 310.035156 251.855469 310.632812 251.78125 C 311.140625 250.695312 311.597656 249.589844 312.007812 248.464844 C 311.609375 248.25 311.214844 248.027344 310.824219 247.800781 C 309.058594 246.773438 307.371094 245.625 305.753906 244.382812 C 303.34375 245.289062 300.890625 246.085938 298.410156 246.769531 C 299.105469 247.40625 299.785156 248.058594 300.453125 248.722656 C 301.472656 249.734375 302.460938 250.78125 303.410156 251.859375 C 305.207031 252.070312 307.023438 252.054688 308.828125 251.960938 Z M 245.054688 255.765625 C 249.15625 253.375 252.976562 250.496094 256.414062 247.226562 C 252.796875 246.265625 249.246094 245.035156 245.808594 243.558594 C 244.851562 243.847656 243.890625 244.125 242.929688 244.390625 C 242.082031 248.394531 243.082031 252.210938 245.054688 255.765625 Z M 238.984375 258.820312 C 239.003906 258.808594 239.023438 258.800781 239.046875 258.792969 C 239.035156 258.777344 239.03125 258.761719 239.019531 258.746094 C 239.007812 258.769531 238.996094 258.792969 238.984375 258.820312 Z M 314.414062 258.945312 C 315.339844 258.414062 316.257812 257.871094 317.164062 257.3125 C 316.46875 257.507812 315.765625 257.683594 315.0625 257.84375 C 314.851562 258.210938 314.636719 258.582031 314.414062 258.945312 Z M 204.320312 258.972656 C 203.863281 258.109375 203.421875 257.242188 202.996094 256.363281 C 202.585938 255.523438 202.191406 254.671875 201.820312 253.816406 C 201.9375 255.1875 202.117188 256.550781 202.367188 257.902344 C 202.976562 258.261719 203.597656 258.605469 204.230469 258.929688 C 204.261719 258.945312 204.289062 258.957031 204.320312 258.972656 Z M 227.910156 262.035156 C 228.382812 261.960938 228.855469 261.878906 229.324219 261.789062 C 229.613281 261.398438 229.894531 261 230.171875 260.601562 C 227.800781 256.550781 225.746094 252.304688 224.210938 247.863281 C 221.605469 248.117188 218.988281 248.277344 216.367188 248.34375 C 214.769531 248.382812 213.167969 248.382812 211.574219 248.335938 C 216.203125 253.773438 221.777344 258.386719 227.910156 262.035156 Z M 216.570312 262.417969 C 214.8125 261.035156 213.117188 259.570312 211.496094 258.03125 C 212.285156 259.402344 213.117188 260.75 213.988281 262.070312 C 214.84375 262.210938 215.707031 262.328125 216.570312 262.417969 Z M 250.855469 263.890625 C 251.617188 262.664062 252.328125 261.402344 252.992188 260.113281 C 253.332031 259.417969 253.65625 258.71875 253.96875 258.011719 C 252.285156 259.234375 250.542969 260.378906 248.75 261.433594 C 249.191406 261.996094 249.648438 262.546875 250.117188 263.085938 C 250.359375 263.355469 250.605469 263.625 250.855469 263.890625 Z M 301.90625 263.921875 C 302.34375 263.484375 302.773438 263.039062 303.195312 262.589844 C 303.160156 262.539062 303.128906 262.488281 303.09375 262.4375 C 302.089844 260.972656 301.027344 259.554688 299.910156 258.175781 C 298.199219 257.867188 296.511719 257.429688 294.859375 256.894531 C 296.960938 259.46875 299.339844 261.8125 301.90625 263.921875 Z M 246.382812 269.8125 C 246.515625 269.671875 246.648438 269.527344 246.777344 269.378906 C 245.773438 268.34375 244.808594 267.265625 243.886719 266.152344 C 243.460938 265.636719 243.050781 265.113281 242.652344 264.578125 C 242.304688 264.730469 241.957031 264.882812 241.605469 265.03125 C 242.542969 266.589844 243.652344 268.042969 244.867188 269.394531 C 245.371094 269.539062 245.878906 269.679688 246.382812 269.8125 Z M 314.929688 270.246094 C 319.933594 266.765625 325.476562 263.097656 328.503906 257.683594 C 327.335938 258.582031 326.144531 259.449219 324.933594 260.289062 C 321.285156 262.8125 317.464844 265.074219 313.515625 267.09375 C 314.015625 268.132812 314.488281 269.183594 314.929688 270.246094 Z M 220.636719 270.609375 C 221.175781 270.195312 221.710938 269.773438 222.234375 269.339844 C 221.328125 269.367188 220.421875 269.371094 219.515625 269.347656 C 219.644531 269.496094 219.769531 269.640625 219.898438 269.789062 C 220.140625 270.0625 220.386719 270.335938 220.636719 270.609375 Z M 272.234375 272.1875 C 276.007812 271.90625 279.75 271.378906 283.457031 270.636719 C 287.558594 269.78125 291.59375 268.695312 295.566406 267.367188 C 290.382812 262.664062 285.894531 257.054688 283.042969 250.625 C 282.617188 250.296875 282.199219 249.953125 281.785156 249.605469 C 276.296875 249.980469 270.769531 249.789062 265.320312 249.023438 C 264.492188 250.890625 263.722656 252.792969 263.109375 254.746094 C 263.039062 260.617188 260.363281 266.128906 260.816406 271.980469 C 264.441406 272.804688 268.480469 272.246094 272.234375 272.1875 Z M 336.894531 272.917969 C 345.394531 270.285156 351.902344 261.941406 350.714844 252.851562 C 350.625 252.875 350.53125 252.902344 350.441406 252.925781 C 345.953125 259.609375 341.472656 266.296875 336.894531 272.917969 Z M 327.792969 274.21875 C 332.371094 267.632812 336.820312 261.132812 341.277344 254.511719 C 340.707031 254.5625 340.136719 254.601562 339.566406 254.632812 C 337.589844 257.847656 335.347656 260.902344 332.855469 263.734375 C 330.769531 267.363281 328.445312 270.851562 325.875 274.15625 C 325.886719 274.15625 325.894531 274.15625 325.902344 274.15625 C 326.535156 274.191406 327.164062 274.214844 327.792969 274.21875 Z M 214.210938 274.6875 C 214.445312 274.5625 214.679688 274.433594 214.910156 274.304688 C 214.75 274.125 214.589844 273.945312 214.429688 273.761719 C 212.851562 271.957031 211.359375 270.070312 209.964844 268.117188 C 209.257812 267.949219 208.554688 267.761719 207.855469 267.554688 C 208.757812 268.703125 209.691406 269.828125 210.652344 270.929688 C 211.800781 272.21875 212.984375 273.472656 214.210938 274.6875 Z M 293.839844 278.441406 C 298.03125 277.757812 302.136719 276.558594 306.042969 274.898438 C 304.78125 274.191406 303.546875 273.429688 302.34375 272.625 C 299.683594 274.800781 296.828125 276.75 293.839844 278.441406 Z M 189.46875 279.441406 C 187.988281 272.175781 188.742188 264.472656 191.542969 257.609375 C 188.125 253.78125 185.9375 248.820312 185.46875 243.703125 C 178.023438 241.089844 170.914062 237.402344 164.78125 232.40625 C 156.429688 252.8125 166.90625 275.910156 189.46875 279.441406 Z M 230.3125 279.5625 C 233.902344 278.742188 237.285156 277.167969 240.324219 275.101562 C 240.304688 275.082031 240.289062 275.0625 240.273438 275.039062 C 236.875 273.925781 233.554688 272.574219 230.34375 271.011719 C 228.800781 272.589844 227.15625 274.066406 225.429688 275.425781 C 225.859375 275.824219 226.292969 276.21875 226.730469 276.605469 C 227.898438 277.621094 229.09375 278.609375 230.3125 279.5625 Z M 196.472656 279.820312 C 199.550781 279.660156 202.609375 279.125 205.554688 278.222656 C 201.382812 274.082031 198.492188 268.8125 196.714844 263.238281 C 195.167969 268.609375 195.039062 274.414062 196.472656 279.820312 Z M 242.257812 287.191406 C 242.835938 286.613281 243.394531 286.015625 243.941406 285.40625 C 244.851562 284.347656 245.714844 283.253906 246.53125 282.125 C 245.929688 281.5 245.339844 280.867188 244.753906 280.226562 C 242.425781 281.894531 239.910156 283.292969 237.265625 284.390625 C 238.894531 285.382812 240.5625 286.316406 242.257812 287.191406 Z M 258.71875 293.117188 C 256.175781 291.167969 253.730469 289.09375 251.378906 286.910156 C 251.25 287.089844 251.117188 287.265625 250.984375 287.4375 C 250.289062 288.351562 249.554688 289.242188 248.792969 290.105469 C 249.570312 290.410156 250.355469 290.703125 251.144531 290.980469 C 253.632812 291.832031 256.15625 292.542969 258.71875 293.117188 Z M 273.121094 294.535156 C 286.929688 294.300781 300.566406 289.121094 311.007812 280.070312 C 300.160156 285.183594 287.738281 287.179688 275.902344 284.96875 C 271.738281 285.699219 267.460938 285.90625 263.257812 285.453125 C 263.382812 285.855469 263.515625 286.257812 263.652344 286.660156 C 263.945312 287.476562 264.253906 288.289062 264.582031 289.089844 C 265.40625 289.691406 266.238281 290.277344 267.078125 290.855469 C 269.042969 292.167969 271.054688 293.394531 273.121094 294.535156 Z M 220.480469 297.859375 C 224.070312 297.578125 227.601562 296.664062 230.878906 295.179688 C 224.003906 292.011719 218.625 286.503906 211.949219 283.148438 C 209.628906 284.066406 207.25 284.820312 204.835938 285.40625 C 202.949219 285.863281 201.03125 286.1875 199.101562 286.382812 C 203.269531 293.941406 211.871094 298.578125 220.480469 297.859375 Z M 318.988281 285.082031 C 319.472656 288.640625 319.542969 292.285156 319.105469 295.847656 C 318.824219 298.144531 318.285156 300.421875 317.523438 302.613281 C 350.074219 298.023438 372.160156 269.84375 374.554688 237.929688 C 371.0625 242.3125 366.5625 245.851562 361.640625 248.515625 C 360.207031 249.292969 358.742188 249.992188 357.242188 250.621094 C 360.546875 271.679688 339.550781 284.484375 320.59375 280.269531 C 319.925781 280.96875 319.242188 281.652344 318.546875 282.320312 C 318.714844 283.238281 318.867188 284.160156 318.988281 285.082031 Z M 309.925781 303.367188 C 312.335938 298.488281 313.03125 292.925781 312.476562 287.550781 C 304.535156 293.664062 295.207031 297.9375 285.382812 299.933594 C 293.265625 302.5625 301.621094 303.734375 309.925781 303.367188 Z M 295.625 313.367188 C 298.804688 313.132812 301.960938 312.078125 304.515625 310.140625 C 293.746094 309.816406 283.113281 307.054688 273.457031 302.308594 C 273.480469 302.597656 273.460938 302.886719 273.40625 303.167969 C 279.023438 309.320312 287.089844 313.929688 295.625 313.367188 Z M 291.832031 320.054688 C 282.019531 319.238281 273.1875 313.535156 267 306.078125 C 257.171875 305.472656 247.640625 302.320312 238.53125 298.742188 C 222.046875 309.429688 199.636719 305.464844 191.625 286.472656 C 162.132812 284.367188 147.171875 253.210938 159.535156 227.472656 C 146.335938 214.132812 146.875 194.105469 158.867188 180.167969 C 165.496094 172.09375 174.429688 166.234375 183.832031 161.859375 C 187.722656 159.644531 192.652344 159.300781 195.828125 156.0625 C 221.457031 135.335938 264.777344 125.746094 293.683594 144.726562 C 297.386719 144.488281 301.113281 144.640625 304.785156 145.171875 C 311.574219 146.160156 318.101562 148.523438 324.082031 151.851562 C 346.796875 147.21875 368.578125 159.871094 374.070312 182.71875 C 375.566406 188.410156 375.960938 194.320312 375.472656 200.171875 C 376.328125 202.257812 377.082031 204.382812 377.769531 206.53125 C 392.679688 251.78125 363.652344 306.433594 313.90625 309.855469 C 309.1875 317.113281 300.367188 320.933594 291.832031 320.054688 " fill-opacity="1" fill-rule="nonzero"/></g></svg>
